SONG Untitled 05
QUARTER_NOTE_TIME 480
TRACKS
1 Saxophone (Listed as flute)
2 Piano (focused on treble staff with some inclusion of the main riff)
3 Piano bass staff (ignore, its empty)
4 Bass
5 Drums

0, 0, Header, 1, 5, 480
1, 0, Start_track
1, 0, Title_t, "Flute\000"
1, 0, Time_signature, 4, 2, 24, 8
1, 0, Key_signature, 0, "major"
1, 0, Tempo, 750000
1, 0, Control_c, 11, 121, 0
1, 0, Program_c, 11, 73
1, 0, Control_c, 11, 7, 96
1, 0, Control_c, 11, 10, 64
1, 0, Control_c, 11, 91, 0
1, 0, Control_c, 11, 93, 0
1, 0, MIDI_port, 0
1, 11040, Note_on_c, 11, 83, 95
1, 11040, Control_c, 11, 2, 80
1, 11381, Note_on_c, 11, 83, 0
1, 11400, Note_on_c, 11, 88, 95
1, 11513, Note_on_c, 11, 88, 0
1, 11520, Note_on_c, 11, 86, 95
1, 12887, Note_on_c, 11, 86, 0
1, 12960, Note_on_c, 11, 83, 95
1, 14783, Note_on_c, 11, 83, 0
1, 14880, Note_on_c, 11, 76, 95
1, 15221, Note_on_c, 11, 76, 0
1, 15240, Note_on_c, 11, 83, 95
1, 15353, Note_on_c, 11, 83, 0
1, 15360, Note_on_c, 11, 81, 95
1, 16727, Note_on_c, 11, 81, 0
1, 16800, Note_on_c, 11, 83, 95
1, 18167, Note_on_c, 11, 83, 0
1, 18720, Note_on_c, 11, 83, 95
1, 18947, Note_on_c, 11, 83, 0
1, 18960, Note_on_c, 11, 86, 95
1, 19073, Note_on_c, 11, 86, 0
1, 19080, Note_on_c, 11, 88, 95
1, 19193, Note_on_c, 11, 88, 0
1, 19200, Note_on_c, 11, 81, 95
1, 20111, Note_on_c, 11, 81, 0
1, 20160, Note_on_c, 11, 81, 95
1, 20273, Note_on_c, 11, 81, 0
1, 20280, Note_on_c, 11, 83, 95
1, 20393, Note_on_c, 11, 83, 0
1, 20400, Note_on_c, 11, 84, 95
1, 20513, Note_on_c, 11, 84, 0
1, 20520, Note_on_c, 11, 76, 95
1, 20633, Note_on_c, 11, 76, 0
1, 20640, Note_on_c, 11, 77, 95
1, 22007, Note_on_c, 11, 77, 0
1, 22080, Note_on_c, 11, 83, 95
1, 22535, Note_on_c, 11, 83, 0
1, 22560, Note_on_c, 11, 81, 95
1, 23015, Note_on_c, 11, 81, 0
1, 23040, Note_on_c, 11, 80, 95
1, 23133, Control_c, 11, 2, 79
1, 23226, Control_c, 11, 2, 78
1, 23319, Control_c, 11, 2, 77
1, 23412, Control_c, 11, 2, 76
1, 23505, Control_c, 11, 2, 75
1, 23598, Control_c, 11, 2, 74
1, 23691, Control_c, 11, 2, 73
1, 23784, Control_c, 11, 2, 72
1, 23877, Control_c, 11, 2, 71
1, 23970, Control_c, 11, 2, 70
1, 24062, Control_c, 11, 2, 69
1, 24155, Control_c, 11, 2, 68
1, 24248, Control_c, 11, 2, 67
1, 24341, Control_c, 11, 2, 66
1, 24434, Control_c, 11, 2, 65
1, 24527, Control_c, 11, 2, 64
1, 24620, Control_c, 11, 2, 63
1, 24713, Control_c, 11, 2, 62
1, 24806, Control_c, 11, 2, 61
1, 24899, Control_c, 11, 2, 60
1, 24991, Control_c, 11, 2, 59
1, 25084, Control_c, 11, 2, 58
1, 25177, Control_c, 11, 2, 57
1, 25270, Control_c, 11, 2, 56
1, 25319, Note_on_c, 11, 80, 0
1, 25363, Control_c, 11, 2, 55
1, 25456, Control_c, 11, 2, 54
1, 25549, Control_c, 11, 2, 53
1, 25642, Control_c, 11, 2, 52
1, 25735, Control_c, 11, 2, 51
1, 25828, Control_c, 11, 2, 50
1, 25920, Control_c, 11, 2, 49
1, 26400, Note_on_c, 11, 83, 95
1, 26400, Control_c, 11, 2, 80
1, 26741, Note_on_c, 11, 83, 0
1, 26760, Note_on_c, 11, 88, 95
1, 26873, Note_on_c, 11, 88, 0
1, 26880, Note_on_c, 11, 86, 95
1, 28247, Note_on_c, 11, 86, 0
1, 28320, Note_on_c, 11, 83, 95
1, 30143, Note_on_c, 11, 83, 0
1, 30240, Note_on_c, 11, 76, 95
1, 30581, Note_on_c, 11, 76, 0
1, 30600, Note_on_c, 11, 83, 95
1, 30713, Note_on_c, 11, 83, 0
1, 30720, Note_on_c, 11, 81, 95
1, 32087, Note_on_c, 11, 81, 0
1, 32160, Note_on_c, 11, 83, 95
1, 34211, Note_on_c, 11, 83, 0
1, 34320, Note_on_c, 11, 86, 95
1, 34433, Note_on_c, 11, 86, 0
1, 34440, Note_on_c, 11, 88, 95
1, 34553, Note_on_c, 11, 88, 0
1, 34560, Note_on_c, 11, 81, 95
1, 35471, Note_on_c, 11, 81, 0
1, 35520, Note_on_c, 11, 81, 95
1, 35633, Note_on_c, 11, 81, 0
1, 35640, Note_on_c, 11, 83, 95
1, 35753, Note_on_c, 11, 83, 0
1, 35760, Note_on_c, 11, 84, 95
1, 35873, Note_on_c, 11, 84, 0
1, 35880, Note_on_c, 11, 76, 95
1, 35993, Note_on_c, 11, 76, 0
1, 36000, Note_on_c, 11, 77, 95
1, 37367, Note_on_c, 11, 77, 0
1, 37440, Note_on_c, 11, 83, 95
1, 37895, Note_on_c, 11, 83, 0
1, 37920, Note_on_c, 11, 81, 95
1, 38375, Note_on_c, 11, 81, 0
1, 38400, Note_on_c, 11, 80, 95
1, 40679, Note_on_c, 11, 80, 0
1, 41280, Note_on_c, 11, 76, 95
1, 44015, Note_on_c, 11, 76, 0
1, 46560, Note_on_c, 11, 69, 64
1, 46560, Control_c, 11, 2, 64
1, 47471, Note_on_c, 11, 69, 0
1, 47520, Note_on_c, 11, 71, 64
1, 49343, Note_on_c, 11, 71, 0
1, 49440, Note_on_c, 11, 72, 64
1, 49895, Note_on_c, 11, 72, 0
1, 49920, Note_on_c, 11, 71, 64
1, 50831, Note_on_c, 11, 71, 0
1, 50880, Note_on_c, 11, 69, 64
1, 51335, Note_on_c, 11, 69, 0
1, 51360, Note_on_c, 11, 67, 64
1, 52727, Note_on_c, 11, 67, 0
1, 53760, Note_on_c, 11, 71, 49
1, 53760, Control_c, 11, 2, 49
1, 53822, Control_c, 11, 2, 50
1, 53884, Control_c, 11, 2, 51
1, 53946, Control_c, 11, 2, 52
1, 54008, Control_c, 11, 2, 53
1, 54070, Control_c, 11, 2, 54
1, 54132, Control_c, 11, 2, 55
1, 54194, Control_c, 11, 2, 56
1, 54256, Control_c, 11, 2, 57
1, 54318, Control_c, 11, 2, 58
1, 54380, Control_c, 11, 2, 59
1, 54442, Control_c, 11, 2, 60
1, 54504, Control_c, 11, 2, 61
1, 54566, Control_c, 11, 2, 62
1, 54628, Control_c, 11, 2, 63
1, 54690, Control_c, 11, 2, 64
1, 54751, Control_c, 11, 2, 65
1, 54813, Control_c, 11, 2, 66
1, 54875, Control_c, 11, 2, 67
1, 54937, Control_c, 11, 2, 68
1, 54999, Control_c, 11, 2, 69
1, 55061, Control_c, 11, 2, 70
1, 55123, Control_c, 11, 2, 71
1, 55185, Control_c, 11, 2, 72
1, 55247, Control_c, 11, 2, 73
1, 55309, Control_c, 11, 2, 74
1, 55371, Control_c, 11, 2, 75
1, 55433, Control_c, 11, 2, 76
1, 55495, Control_c, 11, 2, 77
1, 55557, Control_c, 11, 2, 78
1, 55583, Note_on_c, 11, 71, 0
1, 55619, Control_c, 11, 2, 79
1, 55680, Control_c, 11, 2, 80
1, 55680, Note_on_c, 11, 72, 80
1, 57047, Note_on_c, 11, 72, 0
1, 57120, Control_c, 11, 2, 64
1, 57120, Note_on_c, 11, 83, 95
1, 57461, Note_on_c, 11, 83, 0
1, 57480, Note_on_c, 11, 88, 95
1, 57593, Note_on_c, 11, 88, 0
1, 57600, Control_c, 11, 2, 49
1, 57600, Note_on_c, 11, 86, 95
1, 58967, Note_on_c, 11, 86, 0
1, 59040, Note_on_c, 11, 83, 95
1, 60863, Note_on_c, 11, 83, 0
1, 60960, Note_on_c, 11, 76, 95
1, 61301, Note_on_c, 11, 76, 0
1, 61320, Note_on_c, 11, 83, 95
1, 61433, Note_on_c, 11, 83, 0
1, 61440, Note_on_c, 11, 81, 95
1, 62807, Note_on_c, 11, 81, 0
1, 62880, Note_on_c, 11, 83, 95
1, 64247, Note_on_c, 11, 83, 0
1, 64800, Note_on_c, 11, 83, 95
1, 65027, Note_on_c, 11, 83, 0
1, 65040, Note_on_c, 11, 86, 95
1, 65153, Note_on_c, 11, 86, 0
1, 65160, Note_on_c, 11, 88, 95
1, 65273, Note_on_c, 11, 88, 0
1, 65280, Note_on_c, 11, 81, 95
1, 66191, Note_on_c, 11, 81, 0
1, 66240, Note_on_c, 11, 81, 95
1, 66353, Note_on_c, 11, 81, 0
1, 66360, Note_on_c, 11, 83, 95
1, 66473, Note_on_c, 11, 83, 0
1, 66480, Note_on_c, 11, 84, 95
1, 66593, Note_on_c, 11, 84, 0
1, 66600, Note_on_c, 11, 76, 95
1, 66713, Note_on_c, 11, 76, 0
1, 66720, Note_on_c, 11, 77, 95
1, 68087, Note_on_c, 11, 77, 0
1, 68160, Note_on_c, 11, 83, 95
1, 68615, Note_on_c, 11, 83, 0
1, 68640, Note_on_c, 11, 81, 95
1, 69095, Note_on_c, 11, 81, 0
1, 69120, Note_on_c, 11, 80, 95
1, 71399, Note_on_c, 11, 80, 0
1, 72480, Note_on_c, 11, 83, 95
1, 72821, Note_on_c, 11, 83, 0
1, 72840, Note_on_c, 11, 88, 95
1, 72953, Note_on_c, 11, 88, 0
1, 72960, Note_on_c, 11, 86, 95
1, 74327, Note_on_c, 11, 86, 0
1, 74400, Note_on_c, 11, 83, 95
1, 76223, Note_on_c, 11, 83, 0
1, 76320, Note_on_c, 11, 76, 95
1, 76661, Note_on_c, 11, 76, 0
1, 76680, Note_on_c, 11, 83, 95
1, 76793, Note_on_c, 11, 83, 0
1, 76800, Note_on_c, 11, 81, 95
1, 78167, Note_on_c, 11, 81, 0
1, 78240, Note_on_c, 11, 83, 95
1, 79607, Note_on_c, 11, 83, 0
1, 80160, Note_on_c, 11, 83, 95
1, 80387, Note_on_c, 11, 83, 0
1, 80400, Note_on_c, 11, 86, 95
1, 80513, Note_on_c, 11, 86, 0
1, 80520, Note_on_c, 11, 88, 95
1, 80633, Note_on_c, 11, 88, 0
1, 80640, Note_on_c, 11, 81, 95
1, 81551, Note_on_c, 11, 81, 0
1, 81600, Note_on_c, 11, 81, 95
1, 81713, Note_on_c, 11, 81, 0
1, 81720, Note_on_c, 11, 83, 95
1, 81833, Note_on_c, 11, 83, 0
1, 81840, Note_on_c, 11, 84, 95
1, 81953, Note_on_c, 11, 84, 0
1, 81960, Note_on_c, 11, 76, 95
1, 82073, Note_on_c, 11, 76, 0
1, 82080, Note_on_c, 11, 77, 95
1, 83447, Note_on_c, 11, 77, 0
1, 83520, Note_on_c, 11, 83, 95
1, 83975, Note_on_c, 11, 83, 0
1, 84000, Note_on_c, 11, 81, 95
1, 84455, Note_on_c, 11, 81, 0
1, 84480, Note_on_c, 11, 76, 95
1, 86303, Note_on_c, 11, 76, 0
1, 86304, End_track
2, 0, Start_track
2, 0, Title_t, "Piano\000"
2, 0, Key_signature, 0, "major"
2, 0, Control_c, 0, 121, 0
2, 0, Program_c, 0, 0
2, 0, Control_c, 0, 7, 68
2, 0, Control_c, 0, 10, 64
2, 0, Control_c, 0, 91, 0
2, 0, Control_c, 0, 93, 0
2, 0, MIDI_port, 0
2, 3840, Note_on_c, 0, 62, 95
2, 3953, Note_on_c, 0, 62, 0
2, 3960, Note_on_c, 0, 63, 95
2, 4073, Note_on_c, 0, 63, 0
2, 4080, Note_on_c, 0, 67, 95
2, 4193, Note_on_c, 0, 67, 0
2, 4200, Note_on_c, 0, 70, 95
2, 4313, Note_on_c, 0, 70, 0
2, 4320, Note_on_c, 0, 75, 95
2, 4433, Note_on_c, 0, 75, 0
2, 4440, Note_on_c, 0, 63, 95
2, 4553, Note_on_c, 0, 63, 0
2, 4560, Note_on_c, 0, 64, 95
2, 4673, Note_on_c, 0, 64, 0
2, 4680, Note_on_c, 0, 68, 95
2, 4793, Note_on_c, 0, 68, 0
2, 4800, Note_on_c, 0, 70, 95
2, 4913, Note_on_c, 0, 70, 0
2, 4920, Note_on_c, 0, 75, 95
2, 5033, Note_on_c, 0, 75, 0
2, 5040, Note_on_c, 0, 63, 95
2, 5153, Note_on_c, 0, 63, 0
2, 5160, Note_on_c, 0, 64, 95
2, 5273, Note_on_c, 0, 64, 0
2, 5280, Note_on_c, 0, 68, 95
2, 5393, Note_on_c, 0, 68, 0
2, 5400, Note_on_c, 0, 70, 95
2, 5513, Note_on_c, 0, 70, 0
2, 5520, Note_on_c, 0, 75, 95
2, 5633, Note_on_c, 0, 75, 0
2, 5640, Note_on_c, 0, 63, 95
2, 5753, Note_on_c, 0, 63, 0
2, 5760, Note_on_c, 0, 64, 95
2, 5873, Note_on_c, 0, 64, 0
2, 5880, Note_on_c, 0, 68, 95
2, 5993, Note_on_c, 0, 68, 0
2, 6000, Note_on_c, 0, 70, 95
2, 6113, Note_on_c, 0, 70, 0
2, 6120, Note_on_c, 0, 75, 95
2, 6233, Note_on_c, 0, 75, 0
2, 6240, Note_on_c, 0, 63, 95
2, 6353, Note_on_c, 0, 63, 0
2, 6360, Note_on_c, 0, 64, 95
2, 6473, Note_on_c, 0, 64, 0
2, 6480, Note_on_c, 0, 68, 95
2, 6593, Note_on_c, 0, 68, 0
2, 6600, Note_on_c, 0, 70, 95
2, 6713, Note_on_c, 0, 70, 0
2, 6720, Note_on_c, 0, 75, 95
2, 6833, Note_on_c, 0, 75, 0
2, 6840, Note_on_c, 0, 63, 95
2, 6953, Note_on_c, 0, 63, 0
2, 6960, Note_on_c, 0, 64, 95
2, 7073, Note_on_c, 0, 64, 0
2, 7080, Note_on_c, 0, 68, 95
2, 7193, Note_on_c, 0, 68, 0
2, 7200, Note_on_c, 0, 70, 95
2, 7313, Note_on_c, 0, 70, 0
2, 7320, Note_on_c, 0, 75, 95
2, 7376, Note_on_c, 0, 75, 0
2, 7440, Note_on_c, 0, 69, 95
2, 7553, Note_on_c, 0, 69, 0
2, 7560, Note_on_c, 0, 71, 95
2, 7673, Note_on_c, 0, 71, 0
2, 7680, Note_on_c, 0, 74, 95
2, 7793, Note_on_c, 0, 74, 0
2, 7800, Note_on_c, 0, 75, 95
2, 7913, Note_on_c, 0, 75, 0
2, 7920, Note_on_c, 0, 79, 95
2, 8033, Note_on_c, 0, 79, 0
2, 8040, Note_on_c, 0, 82, 95
2, 8153, Note_on_c, 0, 82, 0
2, 8160, Note_on_c, 0, 87, 95
2, 8273, Note_on_c, 0, 87, 0
2, 8280, Note_on_c, 0, 75, 95
2, 8393, Note_on_c, 0, 75, 0
2, 8400, Note_on_c, 0, 76, 95
2, 8513, Note_on_c, 0, 76, 0
2, 8520, Note_on_c, 0, 80, 95
2, 8633, Note_on_c, 0, 80, 0
2, 8640, Note_on_c, 0, 82, 95
2, 8753, Note_on_c, 0, 82, 0
2, 8760, Note_on_c, 0, 87, 95
2, 8873, Note_on_c, 0, 87, 0
2, 8880, Note_on_c, 0, 75, 95
2, 8993, Note_on_c, 0, 75, 0
2, 9000, Note_on_c, 0, 76, 95
2, 9113, Note_on_c, 0, 76, 0
2, 9120, Note_on_c, 0, 80, 95
2, 9233, Note_on_c, 0, 80, 0
2, 9240, Note_on_c, 0, 82, 95
2, 9353, Note_on_c, 0, 82, 0
2, 9360, Note_on_c, 0, 87, 95
2, 9473, Note_on_c, 0, 87, 0
2, 9480, Note_on_c, 0, 75, 95
2, 9593, Note_on_c, 0, 75, 0
2, 9600, Note_on_c, 0, 76, 95
2, 9713, Note_on_c, 0, 76, 0
2, 9720, Note_on_c, 0, 80, 95
2, 9833, Note_on_c, 0, 80, 0
2, 9840, Note_on_c, 0, 82, 95
2, 9953, Note_on_c, 0, 82, 0
2, 9960, Note_on_c, 0, 87, 95
2, 10073, Note_on_c, 0, 87, 0
2, 10080, Note_on_c, 0, 75, 95
2, 10193, Note_on_c, 0, 75, 0
2, 10200, Note_on_c, 0, 76, 95
2, 10313, Note_on_c, 0, 76, 0
2, 10320, Note_on_c, 0, 80, 95
2, 10433, Note_on_c, 0, 80, 0
2, 10440, Note_on_c, 0, 82, 95
2, 10553, Note_on_c, 0, 82, 0
2, 10560, Note_on_c, 0, 87, 95
2, 10673, Note_on_c, 0, 87, 0
2, 10680, Note_on_c, 0, 75, 95
2, 10793, Note_on_c, 0, 75, 0
2, 10800, Note_on_c, 0, 76, 95
2, 10913, Note_on_c, 0, 76, 0
2, 10920, Note_on_c, 0, 80, 95
2, 11033, Note_on_c, 0, 80, 0
2, 11040, Note_on_c, 0, 82, 95
2, 11153, Note_on_c, 0, 82, 0
2, 11160, Note_on_c, 0, 87, 95
2, 11273, Note_on_c, 0, 87, 0
2, 11280, Note_on_c, 0, 81, 95
2, 11393, Note_on_c, 0, 81, 0
2, 11400, Note_on_c, 0, 83, 95
2, 11513, Note_on_c, 0, 83, 0
2, 11520, Note_on_c, 0, 65, 96
2, 12887, Note_on_c, 0, 65, 0
2, 13440, Note_on_c, 0, 65, 80
2, 14807, Note_on_c, 0, 65, 0
2, 15360, Note_on_c, 0, 65, 80
2, 16271, Note_on_c, 0, 65, 0
2, 16800, Note_on_c, 0, 64, 80
2, 17255, Note_on_c, 0, 64, 0
2, 17280, Note_on_c, 0, 67, 80
2, 18419, Note_on_c, 0, 67, 0
2, 18480, Note_on_c, 0, 69, 80
2, 18935, Note_on_c, 0, 69, 0
2, 19200, Note_on_c, 0, 57, 80
2, 20111, Note_on_c, 0, 57, 0
2, 21000, Note_on_c, 0, 79, 96
2, 21059, Note_on_c, 0, 79, 0
2, 21060, Note_on_c, 0, 76, 64
2, 21116, Note_on_c, 0, 76, 0
2, 21120, Note_on_c, 0, 71, 64
2, 21176, Note_on_c, 0, 71, 0
2, 21180, Note_on_c, 0, 76, 96
2, 21239, Note_on_c, 0, 76, 0
2, 21240, Note_on_c, 0, 75, 64
2, 21296, Note_on_c, 0, 75, 0
2, 21300, Note_on_c, 0, 74, 64
2, 21356, Note_on_c, 0, 74, 0
2, 21360, Note_on_c, 0, 71, 96
2, 21419, Note_on_c, 0, 71, 0
2, 21420, Note_on_c, 0, 67, 64
2, 21476, Note_on_c, 0, 67, 0
2, 21480, Note_on_c, 0, 70, 64
2, 21536, Note_on_c, 0, 70, 0
2, 21540, Note_on_c, 0, 71, 64
2, 21596, Note_on_c, 0, 71, 0
2, 21600, Note_on_c, 0, 75, 96
2, 21659, Note_on_c, 0, 75, 0
2, 21660, Note_on_c, 0, 78, 64
2, 21773, Note_on_c, 0, 78, 0
2, 21840, Note_on_c, 0, 57, 64
2, 22067, Note_on_c, 0, 57, 0
2, 22080, Note_on_c, 0, 69, 80
2, 22307, Note_on_c, 0, 69, 0
2, 22320, Note_on_c, 0, 66, 120
2, 22559, Note_on_c, 0, 66, 0
2, 22560, Note_on_c, 0, 68, 80
2, 22787, Note_on_c, 0, 68, 0
2, 22800, Note_on_c, 0, 65, 120
2, 23039, Note_on_c, 0, 65, 0
2, 23040, Note_on_c, 0, 61, 96
2, 24863, Note_on_c, 0, 61, 0
2, 26880, Note_on_c, 0, 65, 96
2, 28247, Note_on_c, 0, 65, 0
2, 28800, Note_on_c, 0, 65, 80
2, 30167, Note_on_c, 0, 65, 0
2, 30720, Note_on_c, 0, 65, 80
2, 31631, Note_on_c, 0, 65, 0
2, 32160, Note_on_c, 0, 64, 80
2, 32615, Note_on_c, 0, 64, 0
2, 32640, Note_on_c, 0, 67, 80
2, 33779, Note_on_c, 0, 67, 0
2, 33840, Note_on_c, 0, 69, 80
2, 34295, Note_on_c, 0, 69, 0
2, 34560, Note_on_c, 0, 57, 80
2, 35471, Note_on_c, 0, 57, 0
2, 36360, Note_on_c, 0, 79, 96
2, 36419, Note_on_c, 0, 79, 0
2, 36420, Note_on_c, 0, 76, 64
2, 36476, Note_on_c, 0, 76, 0
2, 36540, Note_on_c, 0, 76, 96
2, 36599, Note_on_c, 0, 76, 0
2, 36660, Note_on_c, 0, 76, 96
2, 36719, Note_on_c, 0, 76, 0
2, 53760, Note_on_c, 0, 62, 95
2, 53873, Note_on_c, 0, 62, 0
2, 53880, Note_on_c, 0, 63, 95
2, 53993, Note_on_c, 0, 63, 0
2, 54000, Note_on_c, 0, 67, 95
2, 54113, Note_on_c, 0, 67, 0
2, 54120, Note_on_c, 0, 70, 95
2, 54233, Note_on_c, 0, 70, 0
2, 54240, Note_on_c, 0, 75, 95
2, 54353, Note_on_c, 0, 75, 0
2, 54360, Note_on_c, 0, 63, 95
2, 54473, Note_on_c, 0, 63, 0
2, 54480, Note_on_c, 0, 64, 95
2, 54593, Note_on_c, 0, 64, 0
2, 54600, Note_on_c, 0, 68, 95
2, 54713, Note_on_c, 0, 68, 0
2, 54720, Note_on_c, 0, 70, 95
2, 54833, Note_on_c, 0, 70, 0
2, 54840, Note_on_c, 0, 75, 95
2, 54953, Note_on_c, 0, 75, 0
2, 54960, Note_on_c, 0, 63, 95
2, 55073, Note_on_c, 0, 63, 0
2, 55080, Note_on_c, 0, 64, 95
2, 55193, Note_on_c, 0, 64, 0
2, 55200, Note_on_c, 0, 68, 95
2, 55313, Note_on_c, 0, 68, 0
2, 55320, Note_on_c, 0, 70, 95
2, 55433, Note_on_c, 0, 70, 0
2, 55440, Note_on_c, 0, 75, 95
2, 55553, Note_on_c, 0, 75, 0
2, 55560, Note_on_c, 0, 63, 95
2, 55673, Note_on_c, 0, 63, 0
2, 55680, Note_on_c, 0, 64, 95
2, 55793, Note_on_c, 0, 64, 0
2, 55800, Note_on_c, 0, 68, 95
2, 55913, Note_on_c, 0, 68, 0
2, 55920, Note_on_c, 0, 70, 95
2, 56033, Note_on_c, 0, 70, 0
2, 56040, Note_on_c, 0, 75, 95
2, 56153, Note_on_c, 0, 75, 0
2, 56160, Note_on_c, 0, 63, 95
2, 56273, Note_on_c, 0, 63, 0
2, 56280, Note_on_c, 0, 64, 95
2, 56393, Note_on_c, 0, 64, 0
2, 56400, Note_on_c, 0, 68, 95
2, 56513, Note_on_c, 0, 68, 0
2, 56520, Note_on_c, 0, 70, 95
2, 56633, Note_on_c, 0, 70, 0
2, 56640, Note_on_c, 0, 75, 95
2, 56753, Note_on_c, 0, 75, 0
2, 56760, Note_on_c, 0, 63, 95
2, 56873, Note_on_c, 0, 63, 0
2, 56880, Note_on_c, 0, 64, 95
2, 56993, Note_on_c, 0, 64, 0
2, 57000, Note_on_c, 0, 68, 95
2, 57113, Note_on_c, 0, 68, 0
2, 57120, Note_on_c, 0, 70, 95
2, 57233, Note_on_c, 0, 70, 0
2, 57240, Note_on_c, 0, 75, 95
2, 57353, Note_on_c, 0, 75, 0
2, 57360, Note_on_c, 0, 64, 64
2, 57587, Note_on_c, 0, 64, 0
2, 58080, Note_on_c, 0, 76, 95
2, 58535, Note_on_c, 0, 76, 0
2, 58680, Note_on_c, 0, 83, 95
2, 58907, Note_on_c, 0, 83, 0
2, 58920, Note_on_c, 0, 81, 95
2, 59033, Note_on_c, 0, 81, 0
2, 59040, Note_on_c, 0, 81, 95
2, 59267, Note_on_c, 0, 81, 0
2, 59280, Note_on_c, 0, 76, 95
2, 59507, Note_on_c, 0, 76, 0
2, 59640, Note_on_c, 0, 83, 95
2, 59867, Note_on_c, 0, 83, 0
2, 59880, Note_on_c, 0, 81, 95
2, 59993, Note_on_c, 0, 81, 0
2, 60000, Note_on_c, 0, 81, 95
2, 60227, Note_on_c, 0, 81, 0
2, 60240, Note_on_c, 0, 76, 95
2, 60467, Note_on_c, 0, 76, 0
2, 60960, Note_on_c, 0, 83, 95
2, 61301, Note_on_c, 0, 83, 0
2, 61320, Note_on_c, 0, 81, 95
2, 61433, Note_on_c, 0, 81, 0
2, 61440, Note_on_c, 0, 81, 95
2, 62351, Note_on_c, 0, 81, 0
2, 62520, Note_on_c, 0, 83, 95
2, 62747, Note_on_c, 0, 83, 0
2, 62760, Note_on_c, 0, 81, 95
2, 62873, Note_on_c, 0, 81, 0
2, 62880, Note_on_c, 0, 81, 95
2, 63107, Note_on_c, 0, 81, 0
2, 63120, Note_on_c, 0, 76, 95
2, 63347, Note_on_c, 0, 76, 0
2, 63480, Note_on_c, 0, 83, 95
2, 63707, Note_on_c, 0, 83, 0
2, 63720, Note_on_c, 0, 81, 95
2, 63833, Note_on_c, 0, 81, 0
2, 63840, Note_on_c, 0, 81, 95
2, 64067, Note_on_c, 0, 81, 0
2, 64080, Note_on_c, 0, 76, 95
2, 64307, Note_on_c, 0, 76, 0
2, 64800, Note_on_c, 0, 83, 95
2, 65141, Note_on_c, 0, 83, 0
2, 65160, Note_on_c, 0, 81, 95
2, 65273, Note_on_c, 0, 81, 0
2, 65280, Note_on_c, 0, 81, 95
2, 66191, Note_on_c, 0, 81, 0
2, 66360, Note_on_c, 0, 86, 95
2, 66587, Note_on_c, 0, 86, 0
2, 66600, Note_on_c, 0, 83, 95
2, 66713, Note_on_c, 0, 83, 0
2, 66720, Note_on_c, 0, 83, 95
2, 66947, Note_on_c, 0, 83, 0
2, 66960, Note_on_c, 0, 76, 95
2, 67187, Note_on_c, 0, 76, 0
2, 67320, Note_on_c, 0, 86, 95
2, 67547, Note_on_c, 0, 86, 0
2, 67560, Note_on_c, 0, 83, 95
2, 67673, Note_on_c, 0, 83, 0
2, 67680, Note_on_c, 0, 83, 95
2, 68135, Note_on_c, 0, 83, 0
2, 68520, Note_on_c, 0, 76, 95
2, 68633, Note_on_c, 0, 76, 0
2, 68640, Note_on_c, 0, 81, 96
2, 68981, Note_on_c, 0, 81, 0
2, 69000, Note_on_c, 0, 83, 96
2, 69113, Note_on_c, 0, 83, 0
2, 69120, Note_on_c, 0, 73, 96
2, 69347, Note_on_c, 0, 73, 0
2, 69360, Note_on_c, 0, 75, 96
2, 69815, Note_on_c, 0, 75, 0
2, 72120, Note_on_c, 0, 66, 96
2, 72347, Note_on_c, 0, 66, 0
2, 72360, Note_on_c, 0, 73, 96
2, 72530, Note_on_c, 0, 73, 0
2, 72540, Note_on_c, 0, 76, 96
2, 72710, Note_on_c, 0, 76, 0
2, 72720, Note_on_c, 0, 71, 96
2, 72833, Note_on_c, 0, 71, 0
2, 72840, Note_on_c, 0, 83, 95
2, 73181, Note_on_c, 0, 83, 0
2, 73200, Note_on_c, 0, 79, 95
2, 73313, Note_on_c, 0, 79, 0
2, 73320, Note_on_c, 0, 79, 95
2, 73661, Note_on_c, 0, 79, 0
2, 74400, Note_on_c, 0, 74, 96
2, 75311, Note_on_c, 0, 74, 0
2, 75960, Note_on_c, 0, 76, 95
2, 76187, Note_on_c, 0, 76, 0
2, 76200, Note_on_c, 0, 83, 95
2, 76370, Note_on_c, 0, 83, 0
2, 76380, Note_on_c, 0, 83, 95
2, 76550, Note_on_c, 0, 83, 0
2, 76560, Note_on_c, 0, 81, 95
2, 76673, Note_on_c, 0, 81, 0
2, 76680, Note_on_c, 0, 83, 95
2, 77021, Note_on_c, 0, 83, 0
2, 77040, Note_on_c, 0, 79, 95
2, 77153, Note_on_c, 0, 79, 0
2, 77160, Note_on_c, 0, 79, 95
2, 77501, Note_on_c, 0, 79, 0
2, 78240, Note_on_c, 0, 69, 96
2, 79151, Note_on_c, 0, 69, 0
2, 79800, Note_on_c, 0, 76, 95
2, 80027, Note_on_c, 0, 76, 0
2, 80040, Note_on_c, 0, 83, 95
2, 80210, Note_on_c, 0, 83, 0
2, 80220, Note_on_c, 0, 83, 95
2, 80390, Note_on_c, 0, 83, 0
2, 80400, Note_on_c, 0, 81, 95
2, 80513, Note_on_c, 0, 81, 0
2, 80520, Note_on_c, 0, 83, 95
2, 80861, Note_on_c, 0, 83, 0
2, 80880, Note_on_c, 0, 86, 95
2, 81221, Note_on_c, 0, 86, 0
2, 81240, Note_on_c, 0, 83, 95
2, 81809, Note_on_c, 0, 83, 0
2, 83640, Note_on_c, 0, 76, 95
2, 83867, Note_on_c, 0, 76, 0
2, 83880, Note_on_c, 0, 83, 95
2, 84050, Note_on_c, 0, 83, 0
2, 84060, Note_on_c, 0, 83, 95
2, 84230, Note_on_c, 0, 83, 0
2, 84240, Note_on_c, 0, 81, 95
2, 84353, Note_on_c, 0, 81, 0
2, 84360, Note_on_c, 0, 83, 95
2, 84701, Note_on_c, 0, 83, 0
2, 84720, Note_on_c, 0, 79, 95
2, 84833, Note_on_c, 0, 79, 0
2, 84840, Note_on_c, 0, 79, 95
2, 85181, Note_on_c, 0, 79, 0
2, 86400, Note_on_c, 0, 64, 95
2, 86513, Note_on_c, 0, 64, 0
2, 86520, Note_on_c, 0, 63, 95
2, 86633, Note_on_c, 0, 63, 0
2, 86640, Note_on_c, 0, 67, 95
2, 86753, Note_on_c, 0, 67, 0
2, 86760, Note_on_c, 0, 70, 95
2, 86873, Note_on_c, 0, 70, 0
2, 86880, Note_on_c, 0, 75, 95
2, 86993, Note_on_c, 0, 75, 0
2, 87000, Note_on_c, 0, 63, 95
2, 87113, Note_on_c, 0, 63, 0
2, 87120, Note_on_c, 0, 64, 95
2, 87233, Note_on_c, 0, 64, 0
2, 87240, Note_on_c, 0, 68, 95
2, 87353, Note_on_c, 0, 68, 0
2, 87360, Note_on_c, 0, 70, 95
2, 87473, Note_on_c, 0, 70, 0
2, 87480, Note_on_c, 0, 75, 95
2, 87593, Note_on_c, 0, 75, 0
2, 87600, Note_on_c, 0, 63, 95
2, 87713, Note_on_c, 0, 63, 0
2, 87720, Note_on_c, 0, 64, 95
2, 87833, Note_on_c, 0, 64, 0
2, 87840, Note_on_c, 0, 68, 95
2, 87953, Note_on_c, 0, 68, 0
2, 87960, Note_on_c, 0, 70, 95
2, 88073, Note_on_c, 0, 70, 0
2, 88080, Note_on_c, 0, 75, 95
2, 88193, Note_on_c, 0, 75, 0
2, 88200, Note_on_c, 0, 63, 95
2, 88313, Note_on_c, 0, 63, 0
2, 88320, Note_on_c, 0, 64, 95
2, 88433, Note_on_c, 0, 64, 0
2, 88440, Note_on_c, 0, 68, 95
2, 88553, Note_on_c, 0, 68, 0
2, 88560, Note_on_c, 0, 70, 95
2, 88673, Note_on_c, 0, 70, 0
2, 88680, Note_on_c, 0, 75, 95
2, 88793, Note_on_c, 0, 75, 0
2, 88800, Note_on_c, 0, 63, 95
2, 88913, Note_on_c, 0, 63, 0
2, 88920, Note_on_c, 0, 64, 95
2, 89033, Note_on_c, 0, 64, 0
2, 89040, Note_on_c, 0, 68, 95
2, 89153, Note_on_c, 0, 68, 0
2, 89160, Note_on_c, 0, 70, 95
2, 89273, Note_on_c, 0, 70, 0
2, 89280, Note_on_c, 0, 75, 95
2, 89393, Note_on_c, 0, 75, 0
2, 89400, Note_on_c, 0, 63, 95
2, 89513, Note_on_c, 0, 63, 0
2, 89520, Note_on_c, 0, 64, 95
2, 89633, Note_on_c, 0, 64, 0
2, 89640, Note_on_c, 0, 68, 95
2, 89753, Note_on_c, 0, 68, 0
2, 89760, Note_on_c, 0, 70, 95
2, 89873, Note_on_c, 0, 70, 0
2, 89880, Note_on_c, 0, 75, 95
2, 89993, Note_on_c, 0, 75, 0
2, 90000, Note_on_c, 0, 73, 95
2, 90227, Note_on_c, 0, 73, 0
2, 90228, End_track
3, 0, Start_track
3, 0, Title_t, "Piano\000"
3, 0, Key_signature, 0, "major"
3, 0, MIDI_port, 0
3, 1, End_track
4, 0, Start_track
4, 0, Title_t, "Bass Guitar\000"
4, 0, Key_signature, 0, "major"
4, 0, Control_c, 1, 121, 0
4, 0, Program_c, 1, 26
4, 0, Control_c, 1, 7, 69
4, 0, Control_c, 1, 10, 64
4, 0, Control_c, 1, 91, 0
4, 0, Control_c, 1, 93, 0
4, 0, MIDI_port, 0
4, 0, Note_on_c, 1, 38, 95
4, 0, Control_c, 2, 121, 0
4, 0, Program_c, 2, 36
4, 0, Control_c, 2, 7, 69
4, 0, Control_c, 2, 10, 64
4, 0, Control_c, 2, 91, 0
4, 0, Control_c, 2, 93, 0
4, 0, MIDI_port, 0
4, 0, Control_c, 3, 121, 0
4, 0, Program_c, 3, 37
4, 0, Control_c, 3, 7, 69
4, 0, Control_c, 3, 10, 64
4, 0, Control_c, 3, 91, 0
4, 0, Control_c, 3, 93, 0
4, 0, MIDI_port, 0
4, 119, Note_on_c, 1, 38, 0
4, 120, Note_on_c, 1, 39, 95
4, 239, Note_on_c, 1, 39, 0
4, 240, Note_on_c, 1, 43, 95
4, 359, Note_on_c, 1, 43, 0
4, 360, Note_on_c, 1, 46, 95
4, 479, Note_on_c, 1, 46, 0
4, 480, Note_on_c, 1, 51, 95
4, 599, Note_on_c, 1, 51, 0
4, 600, Note_on_c, 1, 39, 95
4, 719, Note_on_c, 1, 39, 0
4, 720, Note_on_c, 1, 40, 95
4, 839, Note_on_c, 1, 40, 0
4, 840, Note_on_c, 1, 44, 95
4, 959, Note_on_c, 1, 44, 0
4, 960, Note_on_c, 1, 46, 95
4, 1079, Note_on_c, 1, 46, 0
4, 1080, Note_on_c, 1, 51, 95
4, 1199, Note_on_c, 1, 51, 0
4, 1200, Note_on_c, 1, 39, 95
4, 1319, Note_on_c, 1, 39, 0
4, 1320, Note_on_c, 1, 40, 95
4, 1439, Note_on_c, 1, 40, 0
4, 1440, Note_on_c, 1, 44, 95
4, 1559, Note_on_c, 1, 44, 0
4, 1560, Note_on_c, 1, 46, 95
4, 1679, Note_on_c, 1, 46, 0
4, 1680, Note_on_c, 1, 51, 95
4, 1799, Note_on_c, 1, 51, 0
4, 1800, Note_on_c, 1, 39, 95
4, 1919, Note_on_c, 1, 39, 0
4, 1920, Note_on_c, 1, 40, 95
4, 2039, Note_on_c, 1, 40, 0
4, 2040, Note_on_c, 1, 44, 95
4, 2159, Note_on_c, 1, 44, 0
4, 2160, Note_on_c, 1, 46, 95
4, 2279, Note_on_c, 1, 46, 0
4, 2280, Note_on_c, 1, 51, 95
4, 2399, Note_on_c, 1, 51, 0
4, 2400, Note_on_c, 1, 39, 95
4, 2519, Note_on_c, 1, 39, 0
4, 2520, Note_on_c, 1, 40, 95
4, 2639, Note_on_c, 1, 40, 0
4, 2640, Note_on_c, 1, 44, 95
4, 2759, Note_on_c, 1, 44, 0
4, 2760, Note_on_c, 1, 46, 95
4, 2879, Note_on_c, 1, 46, 0
4, 2880, Note_on_c, 1, 51, 95
4, 2999, Note_on_c, 1, 51, 0
4, 3000, Note_on_c, 1, 39, 95
4, 3119, Note_on_c, 1, 39, 0
4, 3120, Note_on_c, 1, 40, 95
4, 3239, Note_on_c, 1, 40, 0
4, 3240, Note_on_c, 1, 44, 95
4, 3359, Note_on_c, 1, 44, 0
4, 3360, Note_on_c, 1, 46, 95
4, 3479, Note_on_c, 1, 46, 0
4, 3480, Note_on_c, 1, 51, 95
4, 3599, Note_on_c, 1, 51, 0
4, 3600, Note_on_c, 1, 75, 95
4, 3839, Note_on_c, 1, 75, 0
4, 3840, Note_on_c, 1, 38, 95
4, 3959, Note_on_c, 1, 38, 0
4, 3960, Note_on_c, 1, 39, 95
4, 4079, Note_on_c, 1, 39, 0
4, 4080, Note_on_c, 1, 43, 95
4, 4199, Note_on_c, 1, 43, 0
4, 4200, Note_on_c, 1, 46, 95
4, 4319, Note_on_c, 1, 46, 0
4, 4320, Note_on_c, 1, 51, 95
4, 4439, Note_on_c, 1, 51, 0
4, 4440, Note_on_c, 1, 39, 95
4, 4559, Note_on_c, 1, 39, 0
4, 4560, Note_on_c, 1, 40, 95
4, 4679, Note_on_c, 1, 40, 0
4, 4680, Note_on_c, 1, 44, 95
4, 4799, Note_on_c, 1, 44, 0
4, 4800, Note_on_c, 1, 46, 95
4, 4919, Note_on_c, 1, 46, 0
4, 4920, Note_on_c, 1, 51, 95
4, 5039, Note_on_c, 1, 51, 0
4, 5040, Note_on_c, 1, 39, 95
4, 5159, Note_on_c, 1, 39, 0
4, 5160, Note_on_c, 1, 40, 95
4, 5279, Note_on_c, 1, 40, 0
4, 5280, Note_on_c, 1, 44, 95
4, 5399, Note_on_c, 1, 44, 0
4, 5400, Note_on_c, 1, 46, 95
4, 5519, Note_on_c, 1, 46, 0
4, 5520, Note_on_c, 1, 51, 95
4, 5639, Note_on_c, 1, 51, 0
4, 5640, Note_on_c, 1, 39, 95
4, 5759, Note_on_c, 1, 39, 0
4, 5760, Note_on_c, 1, 40, 95
4, 5879, Note_on_c, 1, 40, 0
4, 5880, Note_on_c, 1, 44, 95
4, 5999, Note_on_c, 1, 44, 0
4, 6000, Note_on_c, 1, 46, 95
4, 6119, Note_on_c, 1, 46, 0
4, 6120, Note_on_c, 1, 51, 95
4, 6239, Note_on_c, 1, 51, 0
4, 6240, Note_on_c, 1, 39, 95
4, 6359, Note_on_c, 1, 39, 0
4, 6360, Note_on_c, 1, 40, 95
4, 6479, Note_on_c, 1, 40, 0
4, 6480, Note_on_c, 1, 44, 95
4, 6599, Note_on_c, 1, 44, 0
4, 6600, Note_on_c, 1, 46, 95
4, 6719, Note_on_c, 1, 46, 0
4, 6720, Note_on_c, 1, 51, 95
4, 6839, Note_on_c, 1, 51, 0
4, 6840, Note_on_c, 1, 39, 95
4, 6959, Note_on_c, 1, 39, 0
4, 6960, Note_on_c, 1, 40, 95
4, 7079, Note_on_c, 1, 40, 0
4, 7080, Note_on_c, 1, 44, 95
4, 7199, Note_on_c, 1, 44, 0
4, 7200, Note_on_c, 1, 46, 95
4, 7319, Note_on_c, 1, 46, 0
4, 7320, Note_on_c, 1, 51, 95
4, 7379, Note_on_c, 1, 51, 0
4, 7440, Note_on_c, 1, 45, 95
4, 7559, Note_on_c, 1, 45, 0
4, 7560, Note_on_c, 1, 47, 95
4, 7679, Note_on_c, 1, 47, 0
4, 7680, Note_on_c, 1, 38, 95
4, 7799, Note_on_c, 1, 38, 0
4, 7800, Note_on_c, 1, 39, 95
4, 7919, Note_on_c, 1, 39, 0
4, 7920, Note_on_c, 1, 43, 95
4, 8039, Note_on_c, 1, 43, 0
4, 8040, Note_on_c, 1, 46, 95
4, 8159, Note_on_c, 1, 46, 0
4, 8160, Note_on_c, 1, 51, 95
4, 8279, Note_on_c, 1, 51, 0
4, 8280, Note_on_c, 1, 39, 95
4, 8399, Note_on_c, 1, 39, 0
4, 8400, Note_on_c, 1, 40, 95
4, 8519, Note_on_c, 1, 40, 0
4, 8520, Note_on_c, 1, 44, 95
4, 8639, Note_on_c, 1, 44, 0
4, 8640, Note_on_c, 1, 46, 95
4, 8759, Note_on_c, 1, 46, 0
4, 8760, Note_on_c, 1, 51, 95
4, 8879, Note_on_c, 1, 51, 0
4, 8880, Note_on_c, 1, 39, 95
4, 8999, Note_on_c, 1, 39, 0
4, 9000, Note_on_c, 1, 40, 95
4, 9119, Note_on_c, 1, 40, 0
4, 9120, Note_on_c, 1, 44, 95
4, 9239, Note_on_c, 1, 44, 0
4, 9240, Note_on_c, 1, 46, 95
4, 9359, Note_on_c, 1, 46, 0
4, 9360, Note_on_c, 1, 51, 95
4, 9479, Note_on_c, 1, 51, 0
4, 9480, Note_on_c, 1, 39, 95
4, 9599, Note_on_c, 1, 39, 0
4, 9600, Note_on_c, 1, 40, 95
4, 9719, Note_on_c, 1, 40, 0
4, 9720, Note_on_c, 1, 44, 95
4, 9839, Note_on_c, 1, 44, 0
4, 9840, Note_on_c, 1, 46, 95
4, 9959, Note_on_c, 1, 46, 0
4, 9960, Note_on_c, 1, 51, 95
4, 10079, Note_on_c, 1, 51, 0
4, 10080, Note_on_c, 1, 39, 95
4, 10199, Note_on_c, 1, 39, 0
4, 10200, Note_on_c, 1, 40, 95
4, 10319, Note_on_c, 1, 40, 0
4, 10320, Note_on_c, 1, 44, 95
4, 10439, Note_on_c, 1, 44, 0
4, 10440, Note_on_c, 1, 46, 95
4, 10559, Note_on_c, 1, 46, 0
4, 10560, Note_on_c, 1, 51, 95
4, 10679, Note_on_c, 1, 51, 0
4, 10680, Note_on_c, 1, 39, 95
4, 10799, Note_on_c, 1, 39, 0
4, 10800, Note_on_c, 1, 40, 95
4, 10919, Note_on_c, 1, 40, 0
4, 10920, Note_on_c, 1, 44, 95
4, 11039, Note_on_c, 1, 44, 0
4, 11040, Note_on_c, 1, 46, 95
4, 11159, Note_on_c, 1, 46, 0
4, 11160, Note_on_c, 1, 51, 95
4, 11279, Note_on_c, 1, 51, 0
4, 11280, Note_on_c, 1, 45, 95
4, 11399, Note_on_c, 1, 45, 0
4, 11400, Note_on_c, 1, 47, 95
4, 11519, Note_on_c, 1, 47, 0
4, 11520, Note_on_c, 1, 50, 95
4, 11639, Note_on_c, 1, 50, 0
4, 11640, Note_on_c, 1, 52, 95
4, 11759, Note_on_c, 1, 52, 0
4, 11760, Note_on_c, 1, 40, 95
4, 11879, Note_on_c, 1, 40, 0
4, 11880, Note_on_c, 1, 40, 95
4, 11999, Note_on_c, 1, 40, 0
4, 12000, Note_on_c, 1, 40, 95
4, 12359, Note_on_c, 1, 40, 0
4, 12360, Note_on_c, 1, 35, 95
4, 12479, Note_on_c, 1, 35, 0
4, 12480, Note_on_c, 1, 40, 95
4, 12599, Note_on_c, 1, 40, 0
4, 12600, Note_on_c, 1, 35, 95
4, 12719, Note_on_c, 1, 35, 0
4, 12720, Note_on_c, 1, 28, 95
4, 12839, Note_on_c, 1, 28, 0
4, 12840, Note_on_c, 1, 29, 95
4, 12959, Note_on_c, 1, 29, 0
4, 12960, Note_on_c, 1, 29, 95
4, 14879, Note_on_c, 1, 29, 0
4, 14880, Note_on_c, 1, 29, 95
4, 14999, Note_on_c, 1, 29, 0
4, 15000, Note_on_c, 1, 31, 95
4, 15119, Note_on_c, 1, 31, 0
4, 15120, Note_on_c, 1, 33, 95
4, 15239, Note_on_c, 1, 33, 0
4, 15240, Note_on_c, 1, 35, 95
4, 15359, Note_on_c, 1, 35, 0
4, 15360, Note_on_c, 1, 35, 95
4, 16319, Note_on_c, 1, 35, 0
4, 16320, Note_on_c, 1, 30, 95
4, 16439, Note_on_c, 1, 30, 0
4, 16440, Note_on_c, 1, 31, 95
4, 16559, Note_on_c, 1, 31, 0
4, 16560, Note_on_c, 1, 38, 95
4, 16679, Note_on_c, 1, 38, 0
4, 16680, Note_on_c, 1, 43, 95
4, 16799, Note_on_c, 1, 43, 0
4, 16800, Note_on_c, 1, 36, 95
4, 18959, Note_on_c, 1, 36, 0
4, 18960, Note_on_c, 1, 38, 95
4, 19079, Note_on_c, 1, 38, 0
4, 19080, Note_on_c, 1, 40, 95
4, 19199, Note_on_c, 1, 40, 0
4, 19200, Note_on_c, 1, 33, 95
4, 20159, Note_on_c, 1, 33, 0
4, 20160, Note_on_c, 1, 33, 95
4, 20279, Note_on_c, 1, 33, 0
4, 20280, Note_on_c, 1, 35, 95
4, 20399, Note_on_c, 1, 35, 0
4, 20400, Note_on_c, 1, 36, 95
4, 20519, Note_on_c, 1, 36, 0
4, 20520, Note_on_c, 1, 28, 95
4, 20639, Note_on_c, 1, 28, 0
4, 20640, Note_on_c, 1, 29, 95
4, 23039, Note_on_c, 1, 29, 0
4, 23040, Note_on_c, 1, 38, 95
4, 23159, Note_on_c, 1, 38, 0
4, 23160, Note_on_c, 1, 39, 95
4, 23279, Note_on_c, 1, 39, 0
4, 23280, Note_on_c, 1, 43, 95
4, 23399, Note_on_c, 1, 43, 0
4, 23400, Note_on_c, 1, 46, 95
4, 23519, Note_on_c, 1, 46, 0
4, 23520, Note_on_c, 1, 51, 95
4, 23639, Note_on_c, 1, 51, 0
4, 23640, Note_on_c, 1, 39, 95
4, 23759, Note_on_c, 1, 39, 0
4, 23760, Note_on_c, 1, 40, 95
4, 23879, Note_on_c, 1, 40, 0
4, 23880, Note_on_c, 1, 44, 95
4, 23999, Note_on_c, 1, 44, 0
4, 24000, Note_on_c, 1, 46, 95
4, 24119, Note_on_c, 1, 46, 0
4, 24120, Note_on_c, 1, 51, 95
4, 24239, Note_on_c, 1, 51, 0
4, 24240, Note_on_c, 1, 39, 95
4, 24359, Note_on_c, 1, 39, 0
4, 24360, Note_on_c, 1, 40, 95
4, 24479, Note_on_c, 1, 40, 0
4, 24480, Note_on_c, 1, 44, 95
4, 24599, Note_on_c, 1, 44, 0
4, 24600, Note_on_c, 1, 46, 95
4, 24719, Note_on_c, 1, 46, 0
4, 24720, Note_on_c, 1, 51, 95
4, 24839, Note_on_c, 1, 51, 0
4, 24840, Note_on_c, 1, 39, 95
4, 24959, Note_on_c, 1, 39, 0
4, 24960, Note_on_c, 1, 40, 95
4, 25079, Note_on_c, 1, 40, 0
4, 25080, Note_on_c, 1, 44, 95
4, 25199, Note_on_c, 1, 44, 0
4, 25200, Note_on_c, 1, 46, 95
4, 25319, Note_on_c, 1, 46, 0
4, 25320, Note_on_c, 1, 51, 95
4, 25439, Note_on_c, 1, 51, 0
4, 25440, Note_on_c, 1, 39, 95
4, 25559, Note_on_c, 1, 39, 0
4, 25560, Note_on_c, 1, 40, 95
4, 25679, Note_on_c, 1, 40, 0
4, 25680, Note_on_c, 1, 44, 95
4, 25799, Note_on_c, 1, 44, 0
4, 25800, Note_on_c, 1, 46, 95
4, 25919, Note_on_c, 1, 46, 0
4, 25920, Note_on_c, 1, 51, 95
4, 26039, Note_on_c, 1, 51, 0
4, 26040, Note_on_c, 1, 39, 95
4, 26159, Note_on_c, 1, 39, 0
4, 26160, Note_on_c, 1, 40, 95
4, 26279, Note_on_c, 1, 40, 0
4, 26280, Note_on_c, 1, 44, 95
4, 26399, Note_on_c, 1, 44, 0
4, 26400, Note_on_c, 1, 46, 95
4, 26519, Note_on_c, 1, 46, 0
4, 26520, Note_on_c, 1, 51, 95
4, 26639, Note_on_c, 1, 51, 0
4, 26640, Note_on_c, 1, 40, 112
4, 26879, Note_on_c, 1, 40, 0
4, 26880, Note_on_c, 1, 35, 126
4, 27119, Note_on_c, 1, 35, 0
4, 27120, Note_on_c, 1, 35, 126
4, 27239, Note_on_c, 1, 35, 0
4, 27240, Note_on_c, 1, 35, 126
4, 27359, Note_on_c, 1, 35, 0
4, 27360, Note_on_c, 1, 28, 95
4, 27839, Note_on_c, 1, 28, 0
4, 27840, Note_on_c, 1, 35, 126
4, 27959, Note_on_c, 1, 35, 0
4, 27960, Note_on_c, 1, 40, 126
4, 28079, Note_on_c, 1, 40, 0
4, 28080, Note_on_c, 1, 35, 126
4, 28199, Note_on_c, 1, 35, 0
4, 28200, Note_on_c, 1, 28, 126
4, 28319, Note_on_c, 1, 28, 0
4, 28320, Note_on_c, 1, 29, 95
4, 29759, Note_on_c, 1, 29, 0
4, 29760, Note_on_c, 1, 36, 126
4, 29879, Note_on_c, 1, 36, 0
4, 29880, Note_on_c, 1, 41, 126
4, 30719, Note_on_c, 1, 41, 0
4, 30720, Note_on_c, 1, 35, 126
4, 31679, Note_on_c, 1, 35, 0
4, 31680, Note_on_c, 1, 30, 126
4, 31799, Note_on_c, 1, 30, 0
4, 31800, Note_on_c, 1, 31, 126
4, 31919, Note_on_c, 1, 31, 0
4, 31920, Note_on_c, 1, 38, 126
4, 32039, Note_on_c, 1, 38, 0
4, 32040, Note_on_c, 1, 43, 126
4, 32159, Note_on_c, 1, 43, 0
4, 32160, Note_on_c, 1, 36, 126
4, 34079, Note_on_c, 1, 36, 0
4, 34080, Note_on_c, 1, 38, 126
4, 34199, Note_on_c, 1, 38, 0
4, 34200, Note_on_c, 1, 40, 126
4, 34319, Note_on_c, 1, 40, 0
4, 34320, Note_on_c, 1, 43, 126
4, 34439, Note_on_c, 1, 43, 0
4, 34440, Note_on_c, 1, 45, 126
4, 34559, Note_on_c, 1, 45, 0
4, 34560, Note_on_c, 1, 33, 126
4, 35519, Note_on_c, 1, 33, 0
4, 35520, Note_on_c, 1, 33, 126
4, 35639, Note_on_c, 1, 33, 0
4, 35640, Note_on_c, 1, 35, 126
4, 35759, Note_on_c, 1, 35, 0
4, 35760, Note_on_c, 1, 36, 126
4, 35879, Note_on_c, 1, 36, 0
4, 35880, Note_on_c, 1, 28, 126
4, 35999, Note_on_c, 1, 28, 0
4, 36000, Note_on_c, 1, 29, 126
4, 37439, Note_on_c, 1, 29, 0
4, 37440, Note_on_c, 1, 29, 126
4, 37559, Note_on_c, 1, 29, 0
4, 37560, Note_on_c, 1, 29, 126
4, 37919, Note_on_c, 1, 29, 0
4, 37920, Note_on_c, 1, 29, 126
4, 38039, Note_on_c, 1, 29, 0
4, 38040, Note_on_c, 1, 29, 126
4, 38399, Note_on_c, 1, 29, 0
4, 38400, Note_on_c, 1, 28, 126
4, 38639, Note_on_c, 1, 28, 0
4, 38640, Note_on_c, 1, 28, 126
4, 38759, Note_on_c, 1, 28, 0
4, 38760, Note_on_c, 1, 28, 126
4, 38879, Note_on_c, 1, 28, 0
4, 38880, Note_on_c, 1, 28, 126
4, 38999, Note_on_c, 1, 28, 0
4, 39000, Note_on_c, 1, 28, 126
4, 39119, Note_on_c, 1, 28, 0
4, 39120, Note_on_c, 1, 28, 126
4, 39239, Note_on_c, 1, 28, 0
4, 39240, Note_on_c, 1, 28, 126
4, 39359, Note_on_c, 1, 28, 0
4, 39360, Note_on_c, 1, 28, 126
4, 39479, Note_on_c, 1, 28, 0
4, 39480, Note_on_c, 1, 28, 126
4, 39599, Note_on_c, 1, 28, 0
4, 39600, Note_on_c, 1, 28, 126
4, 39719, Note_on_c, 1, 28, 0
4, 39720, Note_on_c, 1, 28, 126
4, 39839, Note_on_c, 1, 28, 0
4, 39840, Note_on_c, 1, 28, 126
4, 39959, Note_on_c, 1, 28, 0
4, 39960, Note_on_c, 1, 28, 126
4, 40079, Note_on_c, 1, 28, 0
4, 40080, Note_on_c, 1, 28, 126
4, 40199, Note_on_c, 1, 28, 0
4, 40200, Note_on_c, 1, 28, 126
4, 40319, Note_on_c, 1, 28, 0
4, 40320, Note_on_c, 1, 28, 126
4, 40439, Note_on_c, 1, 28, 0
4, 40440, Note_on_c, 1, 28, 126
4, 40559, Note_on_c, 1, 28, 0
4, 40560, Note_on_c, 1, 28, 126
4, 40679, Note_on_c, 1, 28, 0
4, 40680, Note_on_c, 1, 28, 126
4, 40799, Note_on_c, 1, 28, 0
4, 40800, Note_on_c, 1, 28, 126
4, 40919, Note_on_c, 1, 28, 0
4, 40920, Note_on_c, 1, 28, 126
4, 41039, Note_on_c, 1, 28, 0
4, 41040, Note_on_c, 1, 28, 126
4, 41159, Note_on_c, 1, 28, 0
4, 41160, Note_on_c, 1, 28, 126
4, 41279, Note_on_c, 1, 28, 0
4, 41280, Note_on_c, 1, 28, 126
4, 41399, Note_on_c, 1, 28, 0
4, 41400, Note_on_c, 1, 28, 126
4, 41519, Note_on_c, 1, 28, 0
4, 41520, Note_on_c, 1, 28, 126
4, 41639, Note_on_c, 1, 28, 0
4, 41640, Note_on_c, 1, 28, 126
4, 41759, Note_on_c, 1, 28, 0
4, 41760, Note_on_c, 1, 33, 126
4, 41879, Note_on_c, 1, 33, 0
4, 41880, Note_on_c, 1, 35, 126
4, 41999, Note_on_c, 1, 35, 0
4, 42000, Note_on_c, 1, 38, 126
4, 42119, Note_on_c, 1, 38, 0
4, 42120, Note_on_c, 1, 35, 126
4, 42239, Note_on_c, 1, 35, 0
4, 42240, Note_on_c, 1, 40, 126
4, 43199, Note_on_c, 1, 40, 0
4, 43200, Note_on_c, 1, 33, 126
4, 43319, Note_on_c, 1, 33, 0
4, 43320, Note_on_c, 1, 35, 126
4, 43439, Note_on_c, 1, 35, 0
4, 43440, Note_on_c, 1, 28, 126
4, 43679, Note_on_c, 1, 28, 0
4, 43680, Note_on_c, 1, 29, 126
4, 45119, Note_on_c, 1, 29, 0
4, 45600, Note_on_c, 1, 29, 95
4, 45719, Note_on_c, 1, 29, 0
4, 45720, Note_on_c, 1, 31, 95
4, 45839, Note_on_c, 1, 31, 0
4, 45840, Note_on_c, 1, 33, 95
4, 45959, Note_on_c, 1, 33, 0
4, 45960, Note_on_c, 1, 34, 95
4, 46079, Note_on_c, 1, 34, 0
4, 46080, Note_on_c, 1, 35, 95
4, 47039, Note_on_c, 1, 35, 0
4, 47040, Note_on_c, 1, 30, 95
4, 47159, Note_on_c, 1, 30, 0
4, 47160, Note_on_c, 1, 31, 95
4, 47279, Note_on_c, 1, 31, 0
4, 47280, Note_on_c, 1, 38, 95
4, 47399, Note_on_c, 1, 38, 0
4, 47400, Note_on_c, 1, 43, 95
4, 47519, Note_on_c, 1, 43, 0
4, 47520, Note_on_c, 1, 36, 95
4, 49679, Note_on_c, 1, 36, 0
4, 49680, Note_on_c, 1, 38, 95
4, 49799, Note_on_c, 1, 38, 0
4, 49800, Note_on_c, 1, 40, 95
4, 49919, Note_on_c, 1, 40, 0
4, 49920, Note_on_c, 1, 33, 95
4, 50879, Note_on_c, 1, 33, 0
4, 50880, Note_on_c, 1, 33, 95
4, 50999, Note_on_c, 1, 33, 0
4, 51000, Note_on_c, 1, 35, 95
4, 51119, Note_on_c, 1, 35, 0
4, 51120, Note_on_c, 1, 36, 95
4, 51239, Note_on_c, 1, 36, 0
4, 51240, Note_on_c, 1, 28, 95
4, 51359, Note_on_c, 1, 28, 0
4, 51360, Note_on_c, 1, 29, 95
4, 52559, Note_on_c, 1, 29, 0
4, 52680, Note_on_c, 1, 29, 126
4, 52799, Note_on_c, 1, 29, 0
4, 52800, Note_on_c, 1, 40, 126
4, 53159, Note_on_c, 1, 40, 0
4, 53160, Note_on_c, 1, 29, 126
4, 53279, Note_on_c, 1, 29, 0
4, 53280, Note_on_c, 1, 36, 126
4, 53639, Note_on_c, 1, 36, 0
4, 53640, Note_on_c, 1, 35, 126
4, 53759, Note_on_c, 1, 35, 0
4, 53760, Note_on_c, 1, 23, 127
4, 55679, Note_on_c, 1, 23, 0
4, 57600, Note_on_c, 1, 36, 95
4, 59519, Note_on_c, 1, 36, 0
4, 61440, Note_on_c, 1, 35, 127
4, 62879, Note_on_c, 1, 35, 0
4, 62880, Note_on_c, 1, 36, 126
4, 64799, Note_on_c, 1, 36, 0
4, 64800, Note_on_c, 1, 35, 127
4, 65279, Note_on_c, 1, 35, 0
4, 65280, Note_on_c, 1, 33, 95
4, 66719, Note_on_c, 1, 33, 0
4, 66720, Note_on_c, 1, 29, 95
4, 69119, Note_on_c, 1, 29, 0
4, 69120, Note_on_c, 1, 38, 95
4, 69239, Note_on_c, 1, 38, 0
4, 69240, Note_on_c, 1, 39, 95
4, 69359, Note_on_c, 1, 39, 0
4, 69360, Note_on_c, 1, 43, 95
4, 69479, Note_on_c, 1, 43, 0
4, 69480, Note_on_c, 1, 46, 95
4, 69599, Note_on_c, 1, 46, 0
4, 69600, Note_on_c, 1, 51, 95
4, 69719, Note_on_c, 1, 51, 0
4, 69720, Note_on_c, 1, 39, 95
4, 69839, Note_on_c, 1, 39, 0
4, 69840, Note_on_c, 1, 40, 95
4, 69959, Note_on_c, 1, 40, 0
4, 69960, Note_on_c, 1, 44, 95
4, 70079, Note_on_c, 1, 44, 0
4, 70080, Note_on_c, 1, 46, 95
4, 70199, Note_on_c, 1, 46, 0
4, 70200, Note_on_c, 1, 51, 95
4, 70319, Note_on_c, 1, 51, 0
4, 70320, Note_on_c, 1, 39, 95
4, 70439, Note_on_c, 1, 39, 0
4, 70440, Note_on_c, 1, 40, 95
4, 70559, Note_on_c, 1, 40, 0
4, 70560, Note_on_c, 1, 44, 95
4, 70679, Note_on_c, 1, 44, 0
4, 70680, Note_on_c, 1, 46, 95
4, 70799, Note_on_c, 1, 46, 0
4, 70800, Note_on_c, 1, 51, 95
4, 70919, Note_on_c, 1, 51, 0
4, 70920, Note_on_c, 1, 39, 95
4, 71039, Note_on_c, 1, 39, 0
4, 71040, Note_on_c, 1, 40, 95
4, 71159, Note_on_c, 1, 40, 0
4, 71160, Note_on_c, 1, 44, 95
4, 71279, Note_on_c, 1, 44, 0
4, 71280, Note_on_c, 1, 46, 95
4, 71399, Note_on_c, 1, 46, 0
4, 71400, Note_on_c, 1, 51, 95
4, 71519, Note_on_c, 1, 51, 0
4, 71520, Note_on_c, 1, 39, 95
4, 71639, Note_on_c, 1, 39, 0
4, 71640, Note_on_c, 1, 40, 95
4, 71759, Note_on_c, 1, 40, 0
4, 71760, Note_on_c, 1, 44, 95
4, 71879, Note_on_c, 1, 44, 0
4, 71880, Note_on_c, 1, 46, 95
4, 71999, Note_on_c, 1, 46, 0
4, 72000, Note_on_c, 1, 51, 95
4, 72119, Note_on_c, 1, 51, 0
4, 72120, Note_on_c, 1, 39, 95
4, 72239, Note_on_c, 1, 39, 0
4, 72240, Note_on_c, 1, 40, 95
4, 72359, Note_on_c, 1, 40, 0
4, 72360, Note_on_c, 1, 44, 95
4, 72479, Note_on_c, 1, 44, 0
4, 72480, Note_on_c, 1, 46, 95
4, 72599, Note_on_c, 1, 46, 0
4, 72600, Note_on_c, 1, 51, 95
4, 72719, Note_on_c, 1, 51, 0
4, 72720, Note_on_c, 1, 45, 95
4, 72839, Note_on_c, 1, 45, 0
4, 72840, Note_on_c, 1, 47, 95
4, 72959, Note_on_c, 1, 47, 0
4, 72960, Note_on_c, 1, 50, 95
4, 73079, Note_on_c, 1, 50, 0
4, 73080, Note_on_c, 1, 52, 95
4, 73199, Note_on_c, 1, 52, 0
4, 73200, Note_on_c, 1, 40, 95
4, 73319, Note_on_c, 1, 40, 0
4, 73320, Note_on_c, 1, 40, 95
4, 73439, Note_on_c, 1, 40, 0
4, 73440, Note_on_c, 1, 40, 95
4, 73799, Note_on_c, 1, 40, 0
4, 73800, Note_on_c, 1, 35, 95
4, 73919, Note_on_c, 1, 35, 0
4, 73920, Note_on_c, 1, 40, 95
4, 74039, Note_on_c, 1, 40, 0
4, 74040, Note_on_c, 1, 35, 95
4, 74159, Note_on_c, 1, 35, 0
4, 74160, Note_on_c, 1, 28, 95
4, 74279, Note_on_c, 1, 28, 0
4, 74280, Note_on_c, 1, 29, 95
4, 74399, Note_on_c, 1, 29, 0
4, 74400, Note_on_c, 1, 29, 95
4, 76319, Note_on_c, 1, 29, 0
4, 76320, Note_on_c, 1, 29, 95
4, 76439, Note_on_c, 1, 29, 0
4, 76440, Note_on_c, 1, 31, 95
4, 76559, Note_on_c, 1, 31, 0
4, 76560, Note_on_c, 1, 33, 95
4, 76679, Note_on_c, 1, 33, 0
4, 76680, Note_on_c, 1, 35, 95
4, 76799, Note_on_c, 1, 35, 0
4, 76800, Note_on_c, 1, 35, 95
4, 77759, Note_on_c, 1, 35, 0
4, 77760, Note_on_c, 1, 30, 95
4, 77879, Note_on_c, 1, 30, 0
4, 77880, Note_on_c, 1, 31, 95
4, 77999, Note_on_c, 1, 31, 0
4, 78000, Note_on_c, 1, 38, 95
4, 78119, Note_on_c, 1, 38, 0
4, 78120, Note_on_c, 1, 43, 95
4, 78239, Note_on_c, 1, 43, 0
4, 78240, Note_on_c, 1, 36, 95
4, 80399, Note_on_c, 1, 36, 0
4, 80400, Note_on_c, 1, 38, 95
4, 80519, Note_on_c, 1, 38, 0
4, 80520, Note_on_c, 1, 40, 95
4, 80639, Note_on_c, 1, 40, 0
4, 80640, Note_on_c, 1, 33, 95
4, 81599, Note_on_c, 1, 33, 0
4, 81600, Note_on_c, 1, 33, 95
4, 81719, Note_on_c, 1, 33, 0
4, 81720, Note_on_c, 1, 35, 95
4, 81839, Note_on_c, 1, 35, 0
4, 81840, Note_on_c, 1, 36, 95
4, 81959, Note_on_c, 1, 36, 0
4, 81960, Note_on_c, 1, 28, 95
4, 82079, Note_on_c, 1, 28, 0
4, 82080, Note_on_c, 1, 29, 95
4, 84239, Note_on_c, 1, 29, 0
4, 84360, Note_on_c, 1, 24, 95
4, 85439, Note_on_c, 1, 24, 0
4, 85680, Note_on_c, 1, 31, 95
4, 85799, Note_on_c, 1, 31, 0
4, 85800, Note_on_c, 1, 31, 95
4, 85919, Note_on_c, 1, 31, 0
4, 85920, Note_on_c, 1, 31, 126
4, 86159, Note_on_c, 1, 31, 0
4, 86160, Note_on_c, 1, 31, 95
4, 86219, Note_on_c, 1, 31, 0
4, 86280, Note_on_c, 1, 31, 126
4, 86399, Note_on_c, 1, 31, 0
4, 86400, Note_on_c, 1, 40, 95
4, 86519, Note_on_c, 1, 40, 0
4, 86520, Note_on_c, 1, 39, 95
4, 86639, Note_on_c, 1, 39, 0
4, 86640, Note_on_c, 1, 43, 95
4, 86759, Note_on_c, 1, 43, 0
4, 86760, Note_on_c, 1, 46, 95
4, 86879, Note_on_c, 1, 46, 0
4, 86880, Note_on_c, 1, 51, 95
4, 86999, Note_on_c, 1, 51, 0
4, 87000, Note_on_c, 1, 39, 95
4, 87119, Note_on_c, 1, 39, 0
4, 87120, Note_on_c, 1, 40, 95
4, 87239, Note_on_c, 1, 40, 0
4, 87240, Note_on_c, 1, 44, 95
4, 87359, Note_on_c, 1, 44, 0
4, 87360, Note_on_c, 1, 46, 95
4, 87479, Note_on_c, 1, 46, 0
4, 87480, Note_on_c, 1, 51, 95
4, 87599, Note_on_c, 1, 51, 0
4, 87600, Note_on_c, 1, 39, 95
4, 87719, Note_on_c, 1, 39, 0
4, 87720, Note_on_c, 1, 40, 95
4, 87839, Note_on_c, 1, 40, 0
4, 87840, Note_on_c, 1, 44, 95
4, 87959, Note_on_c, 1, 44, 0
4, 87960, Note_on_c, 1, 46, 95
4, 88079, Note_on_c, 1, 46, 0
4, 88080, Note_on_c, 1, 51, 95
4, 88199, Note_on_c, 1, 51, 0
4, 88200, Note_on_c, 1, 39, 95
4, 88319, Note_on_c, 1, 39, 0
4, 88320, Note_on_c, 1, 40, 95
4, 88439, Note_on_c, 1, 40, 0
4, 88440, Note_on_c, 1, 44, 95
4, 88559, Note_on_c, 1, 44, 0
4, 88560, Note_on_c, 1, 46, 95
4, 88679, Note_on_c, 1, 46, 0
4, 88680, Note_on_c, 1, 51, 95
4, 88799, Note_on_c, 1, 51, 0
4, 88800, Note_on_c, 1, 39, 95
4, 88919, Note_on_c, 1, 39, 0
4, 88920, Note_on_c, 1, 40, 95
4, 89039, Note_on_c, 1, 40, 0
4, 89040, Note_on_c, 1, 44, 95
4, 89159, Note_on_c, 1, 44, 0
4, 89160, Note_on_c, 1, 46, 95
4, 89279, Note_on_c, 1, 46, 0
4, 89280, Note_on_c, 1, 51, 95
4, 89399, Note_on_c, 1, 51, 0
4, 89400, Note_on_c, 1, 39, 95
4, 89519, Note_on_c, 1, 39, 0
4, 89520, Note_on_c, 1, 40, 95
4, 89639, Note_on_c, 1, 40, 0
4, 89640, Note_on_c, 1, 44, 95
4, 89759, Note_on_c, 1, 44, 0
4, 89760, Note_on_c, 1, 46, 95
4, 89879, Note_on_c, 1, 46, 0
4, 89880, Note_on_c, 1, 51, 95
4, 89999, Note_on_c, 1, 51, 0
4, 90000, Note_on_c, 1, 46, 95
4, 90239, Note_on_c, 1, 46, 0
4, 90240, End_track
5, 0, Start_track
5, 0, Title_t, "Drumset\000"
5, 0, Key_signature, 0, "major"
5, 0, Control_c, 9, 121, 0
5, 0, Program_c, 9, 0
5, 0, Control_c, 9, 7, 100
5, 0, Control_c, 9, 10, 64
5, 0, Control_c, 9, 91, 0
5, 0, Control_c, 9, 93, 0
5, 0, MIDI_port, 0
5, 3840, Note_on_c, 9, 51, 120
5, 3959, Note_on_c, 9, 51, 0
5, 3960, Note_on_c, 9, 51, 80
5, 4079, Note_on_c, 9, 51, 0
5, 4080, Note_on_c, 9, 51, 120
5, 4199, Note_on_c, 9, 51, 0
5, 4200, Note_on_c, 9, 51, 80
5, 4319, Note_on_c, 9, 51, 0
5, 4320, Note_on_c, 9, 59, 80
5, 4439, Note_on_c, 9, 59, 0
5, 4440, Note_on_c, 9, 51, 120
5, 4559, Note_on_c, 9, 51, 0
5, 4560, Note_on_c, 9, 51, 120
5, 4679, Note_on_c, 9, 51, 0
5, 4680, Note_on_c, 9, 51, 80
5, 4799, Note_on_c, 9, 51, 0
5, 4800, Note_on_c, 9, 51, 120
5, 4919, Note_on_c, 9, 51, 0
5, 4920, Note_on_c, 9, 59, 80
5, 5039, Note_on_c, 9, 59, 0
5, 5040, Note_on_c, 9, 51, 120
5, 5159, Note_on_c, 9, 51, 0
5, 5160, Note_on_c, 9, 51, 120
5, 5279, Note_on_c, 9, 51, 0
5, 5280, Note_on_c, 9, 51, 80
5, 5399, Note_on_c, 9, 51, 0
5, 5400, Note_on_c, 9, 51, 120
5, 5519, Note_on_c, 9, 51, 0
5, 5520, Note_on_c, 9, 59, 80
5, 5639, Note_on_c, 9, 59, 0
5, 5640, Note_on_c, 9, 51, 120
5, 5759, Note_on_c, 9, 51, 0
5, 5880, Note_on_c, 9, 51, 80
5, 5999, Note_on_c, 9, 51, 0
5, 6000, Note_on_c, 9, 51, 120
5, 6119, Note_on_c, 9, 51, 0
5, 6120, Note_on_c, 9, 51, 80
5, 6239, Note_on_c, 9, 51, 0
5, 6240, Note_on_c, 9, 51, 120
5, 6359, Note_on_c, 9, 51, 0
5, 6360, Note_on_c, 9, 59, 120
5, 6479, Note_on_c, 9, 59, 0
5, 6480, Note_on_c, 9, 51, 80
5, 6599, Note_on_c, 9, 51, 0
5, 6600, Note_on_c, 9, 51, 120
5, 6719, Note_on_c, 9, 51, 0
5, 6720, Note_on_c, 9, 51, 80
5, 6839, Note_on_c, 9, 51, 0
5, 6840, Note_on_c, 9, 59, 80
5, 6959, Note_on_c, 9, 59, 0
5, 6960, Note_on_c, 9, 51, 120
5, 7079, Note_on_c, 9, 51, 0
5, 7080, Note_on_c, 9, 51, 80
5, 7199, Note_on_c, 9, 51, 0
5, 7200, Note_on_c, 9, 51, 120
5, 7319, Note_on_c, 9, 51, 0
5, 7320, Note_on_c, 9, 51, 80
5, 7439, Note_on_c, 9, 51, 0
5, 7440, Note_on_c, 9, 59, 80
5, 7559, Note_on_c, 9, 59, 0
5, 7560, Note_on_c, 9, 51, 120
5, 7679, Note_on_c, 9, 51, 0
5, 7680, Note_on_c, 9, 51, 120
5, 7680, Note_on_c, 9, 36, 120
5, 7799, Note_on_c, 9, 51, 0
5, 7800, Note_on_c, 9, 51, 80
5, 7919, Note_on_c, 9, 36, 0
5, 7919, Note_on_c, 9, 51, 0
5, 7920, Note_on_c, 9, 51, 120
5, 7920, Note_on_c, 9, 36, 120
5, 8039, Note_on_c, 9, 51, 0
5, 8040, Note_on_c, 9, 51, 80
5, 8159, Note_on_c, 9, 36, 0
5, 8159, Note_on_c, 9, 51, 0
5, 8160, Note_on_c, 9, 37, 120
5, 8280, Note_on_c, 9, 51, 120
5, 8399, Note_on_c, 9, 37, 0
5, 8399, Note_on_c, 9, 51, 0
5, 8400, Note_on_c, 9, 51, 120
5, 8519, Note_on_c, 9, 51, 0
5, 8520, Note_on_c, 9, 51, 80
5, 8520, Note_on_c, 9, 36, 120
5, 8639, Note_on_c, 9, 51, 0
5, 8640, Note_on_c, 9, 51, 120
5, 8759, Note_on_c, 9, 36, 0
5, 8759, Note_on_c, 9, 51, 0
5, 8760, Note_on_c, 9, 59, 80
5, 8760, Note_on_c, 9, 36, 120
5, 8879, Note_on_c, 9, 59, 0
5, 8879, Note_on_c, 9, 36, 0
5, 8880, Note_on_c, 9, 51, 120
5, 8999, Note_on_c, 9, 51, 0
5, 9000, Note_on_c, 9, 51, 120
5, 9119, Note_on_c, 9, 51, 0
5, 9120, Note_on_c, 9, 51, 80
5, 9239, Note_on_c, 9, 51, 0
5, 9480, Note_on_c, 9, 36, 120
5, 9599, Note_on_c, 9, 36, 0
5, 9600, Note_on_c, 9, 51, 80
5, 9600, Note_on_c, 9, 36, 120
5, 9719, Note_on_c, 9, 51, 0
5, 9720, Note_on_c, 9, 51, 80
5, 9839, Note_on_c, 9, 36, 0
5, 9839, Note_on_c, 9, 51, 0
5, 9840, Note_on_c, 9, 51, 120
5, 9840, Note_on_c, 9, 36, 120
5, 9959, Note_on_c, 9, 51, 0
5, 9960, Note_on_c, 9, 51, 80
5, 10079, Note_on_c, 9, 36, 0
5, 10079, Note_on_c, 9, 51, 0
5, 10080, Note_on_c, 9, 51, 120
5, 10080, Note_on_c, 9, 37, 80
5, 10199, Note_on_c, 9, 51, 0
5, 10200, Note_on_c, 9, 59, 120
5, 10319, Note_on_c, 9, 37, 0
5, 10319, Note_on_c, 9, 59, 0
5, 10320, Note_on_c, 9, 51, 80
5, 10439, Note_on_c, 9, 51, 0
5, 10440, Note_on_c, 9, 51, 120
5, 10559, Note_on_c, 9, 51, 0
5, 10560, Note_on_c, 9, 51, 80
5, 10679, Note_on_c, 9, 51, 0
5, 10680, Note_on_c, 9, 59, 120
5, 10799, Note_on_c, 9, 59, 0
5, 10800, Note_on_c, 9, 51, 120
5, 10919, Note_on_c, 9, 51, 0
5, 10920, Note_on_c, 9, 51, 80
5, 11039, Note_on_c, 9, 51, 0
5, 11040, Note_on_c, 9, 51, 120
5, 11159, Note_on_c, 9, 51, 0
5, 11280, Note_on_c, 9, 59, 120
5, 11400, Note_on_c, 9, 36, 120
5, 11519, Note_on_c, 9, 59, 0
5, 11519, Note_on_c, 9, 36, 0
5, 11520, Note_on_c, 9, 36, 120
5, 11759, Note_on_c, 9, 36, 0
5, 12000, Note_on_c, 9, 37, 120
5, 12479, Note_on_c, 9, 37, 0
5, 12960, Note_on_c, 9, 37, 80
5, 13199, Note_on_c, 9, 37, 0
5, 13200, Note_on_c, 9, 44, 80
5, 13259, Note_on_c, 9, 44, 0
5, 13260, Note_on_c, 9, 44, 80
5, 13319, Note_on_c, 9, 44, 0
5, 14640, Note_on_c, 9, 36, 120
5, 14640, Note_on_c, 9, 37, 120
5, 14879, Note_on_c, 9, 36, 0
5, 14879, Note_on_c, 9, 37, 0
5, 14880, Note_on_c, 9, 36, 120
5, 14880, Note_on_c, 9, 37, 120
5, 15119, Note_on_c, 9, 36, 0
5, 15119, Note_on_c, 9, 37, 0
5, 15120, Note_on_c, 9, 36, 120
5, 15120, Note_on_c, 9, 37, 120
5, 15359, Note_on_c, 9, 36, 0
5, 15359, Note_on_c, 9, 37, 0
5, 16440, Note_on_c, 9, 44, 64
5, 16499, Note_on_c, 9, 44, 0
5, 16500, Note_on_c, 9, 44, 64
5, 16559, Note_on_c, 9, 44, 0
5, 16680, Note_on_c, 9, 44, 64
5, 16859, Note_on_c, 9, 44, 0
5, 16860, Note_on_c, 9, 44, 64
5, 16919, Note_on_c, 9, 44, 0
5, 17040, Note_on_c, 9, 44, 64
5, 17159, Note_on_c, 9, 44, 0
5, 17520, Note_on_c, 9, 44, 64
5, 17579, Note_on_c, 9, 44, 0
5, 17580, Note_on_c, 9, 44, 64
5, 17639, Note_on_c, 9, 44, 0
5, 17760, Note_on_c, 9, 44, 64
5, 17879, Note_on_c, 9, 44, 0
5, 18000, Note_on_c, 9, 44, 64
5, 18059, Note_on_c, 9, 44, 0
5, 18060, Note_on_c, 9, 44, 64
5, 18119, Note_on_c, 9, 44, 0
5, 18240, Note_on_c, 9, 36, 96
5, 18240, Note_on_c, 9, 37, 96
5, 18359, Note_on_c, 9, 36, 0
5, 18359, Note_on_c, 9, 37, 0
5, 18360, Note_on_c, 9, 37, 64
5, 18479, Note_on_c, 9, 37, 0
5, 18480, Note_on_c, 9, 36, 96
5, 18480, Note_on_c, 9, 37, 96
5, 18599, Note_on_c, 9, 36, 0
5, 18599, Note_on_c, 9, 37, 0
5, 18600, Note_on_c, 9, 37, 64
5, 18719, Note_on_c, 9, 37, 0
5, 18720, Note_on_c, 9, 36, 96
5, 18720, Note_on_c, 9, 37, 96
5, 18839, Note_on_c, 9, 36, 0
5, 18839, Note_on_c, 9, 37, 0
5, 18840, Note_on_c, 9, 37, 64
5, 18959, Note_on_c, 9, 37, 0
5, 18960, Note_on_c, 9, 36, 96
5, 18960, Note_on_c, 9, 37, 96
5, 19079, Note_on_c, 9, 36, 0
5, 19079, Note_on_c, 9, 37, 0
5, 19080, Note_on_c, 9, 37, 96
5, 19199, Note_on_c, 9, 37, 0
5, 23040, Note_on_c, 9, 35, 96
5, 23040, Note_on_c, 9, 52, 96
5, 23279, Note_on_c, 9, 35, 0
5, 23279, Note_on_c, 9, 52, 0
5, 23280, Note_on_c, 9, 35, 96
5, 23280, Note_on_c, 9, 52, 96
5, 23399, Note_on_c, 9, 35, 0
5, 23399, Note_on_c, 9, 52, 0
5, 23400, Note_on_c, 9, 52, 64
5, 23519, Note_on_c, 9, 52, 0
5, 23520, Note_on_c, 9, 37, 96
5, 23520, Note_on_c, 9, 52, 96
5, 23759, Note_on_c, 9, 37, 0
5, 23759, Note_on_c, 9, 52, 0
5, 23760, Note_on_c, 9, 52, 64
5, 23879, Note_on_c, 9, 52, 0
5, 23880, Note_on_c, 9, 36, 96
5, 23999, Note_on_c, 9, 36, 0
5, 24000, Note_on_c, 9, 36, 96
5, 24000, Note_on_c, 9, 52, 96
5, 24119, Note_on_c, 9, 36, 0
5, 24119, Note_on_c, 9, 52, 0
5, 24120, Note_on_c, 9, 52, 64
5, 24239, Note_on_c, 9, 52, 0
5, 24240, Note_on_c, 9, 52, 96
5, 24479, Note_on_c, 9, 52, 0
5, 24480, Note_on_c, 9, 37, 96
5, 24480, Note_on_c, 9, 52, 96
5, 24719, Note_on_c, 9, 37, 0
5, 24719, Note_on_c, 9, 52, 0
5, 24720, Note_on_c, 9, 52, 64
5, 24959, Note_on_c, 9, 52, 0
5, 24960, Note_on_c, 9, 35, 96
5, 24960, Note_on_c, 9, 52, 96
5, 25199, Note_on_c, 9, 35, 0
5, 25199, Note_on_c, 9, 52, 0
5, 25200, Note_on_c, 9, 35, 96
5, 25200, Note_on_c, 9, 52, 96
5, 25319, Note_on_c, 9, 35, 0
5, 25319, Note_on_c, 9, 52, 0
5, 25320, Note_on_c, 9, 52, 64
5, 25439, Note_on_c, 9, 52, 0
5, 25440, Note_on_c, 9, 37, 96
5, 25440, Note_on_c, 9, 52, 96
5, 25679, Note_on_c, 9, 37, 0
5, 25679, Note_on_c, 9, 52, 0
5, 25680, Note_on_c, 9, 52, 64
5, 25799, Note_on_c, 9, 52, 0
5, 25800, Note_on_c, 9, 52, 96
5, 25919, Note_on_c, 9, 52, 0
5, 25920, Note_on_c, 9, 36, 96
5, 26039, Note_on_c, 9, 36, 0
5, 26040, Note_on_c, 9, 52, 64
5, 26159, Note_on_c, 9, 52, 0
5, 26160, Note_on_c, 9, 52, 96
5, 26399, Note_on_c, 9, 52, 0
5, 26400, Note_on_c, 9, 52, 96
5, 26639, Note_on_c, 9, 52, 0
5, 26640, Note_on_c, 9, 52, 64
5, 26879, Note_on_c, 9, 52, 0
5, 26880, Note_on_c, 9, 35, 96
5, 26880, Note_on_c, 9, 52, 96
5, 27119, Note_on_c, 9, 35, 0
5, 27119, Note_on_c, 9, 52, 0
5, 27120, Note_on_c, 9, 35, 96
5, 27120, Note_on_c, 9, 52, 96
5, 27239, Note_on_c, 9, 35, 0
5, 27239, Note_on_c, 9, 52, 0
5, 27240, Note_on_c, 9, 52, 64
5, 27359, Note_on_c, 9, 52, 0
5, 27360, Note_on_c, 9, 37, 96
5, 27360, Note_on_c, 9, 52, 96
5, 27599, Note_on_c, 9, 37, 0
5, 27599, Note_on_c, 9, 52, 0
5, 27600, Note_on_c, 9, 52, 64
5, 27719, Note_on_c, 9, 52, 0
5, 27720, Note_on_c, 9, 36, 96
5, 27839, Note_on_c, 9, 36, 0
5, 27840, Note_on_c, 9, 36, 96
5, 27840, Note_on_c, 9, 52, 96
5, 27959, Note_on_c, 9, 36, 0
5, 27959, Note_on_c, 9, 52, 0
5, 27960, Note_on_c, 9, 52, 64
5, 28079, Note_on_c, 9, 52, 0
5, 28080, Note_on_c, 9, 52, 96
5, 28319, Note_on_c, 9, 52, 0
5, 28320, Note_on_c, 9, 37, 96
5, 28320, Note_on_c, 9, 52, 96
5, 28559, Note_on_c, 9, 37, 0
5, 28559, Note_on_c, 9, 52, 0
5, 28560, Note_on_c, 9, 52, 64
5, 28799, Note_on_c, 9, 52, 0
5, 28800, Note_on_c, 9, 35, 96
5, 29039, Note_on_c, 9, 35, 0
5, 29040, Note_on_c, 9, 35, 96
5, 29040, Note_on_c, 9, 52, 96
5, 29159, Note_on_c, 9, 35, 0
5, 29159, Note_on_c, 9, 52, 0
5, 29160, Note_on_c, 9, 52, 64
5, 29279, Note_on_c, 9, 52, 0
5, 29280, Note_on_c, 9, 37, 96
5, 29280, Note_on_c, 9, 52, 96
5, 29519, Note_on_c, 9, 37, 0
5, 29519, Note_on_c, 9, 52, 0
5, 29520, Note_on_c, 9, 52, 64
5, 29639, Note_on_c, 9, 52, 0
5, 29640, Note_on_c, 9, 36, 96
5, 29759, Note_on_c, 9, 36, 0
5, 29760, Note_on_c, 9, 36, 96
5, 29760, Note_on_c, 9, 52, 96
5, 29879, Note_on_c, 9, 36, 0
5, 29879, Note_on_c, 9, 52, 0
5, 29880, Note_on_c, 9, 52, 64
5, 29999, Note_on_c, 9, 52, 0
5, 30000, Note_on_c, 9, 52, 96
5, 30239, Note_on_c, 9, 52, 0
5, 30240, Note_on_c, 9, 52, 96
5, 30719, Note_on_c, 9, 52, 0
5, 30720, Note_on_c, 9, 35, 96
5, 30720, Note_on_c, 9, 52, 96
5, 30959, Note_on_c, 9, 35, 0
5, 30959, Note_on_c, 9, 52, 0
5, 30960, Note_on_c, 9, 35, 96
5, 30960, Note_on_c, 9, 52, 96
5, 31079, Note_on_c, 9, 35, 0
5, 31079, Note_on_c, 9, 52, 0
5, 31080, Note_on_c, 9, 52, 64
5, 31199, Note_on_c, 9, 52, 0
5, 31200, Note_on_c, 9, 37, 96
5, 31200, Note_on_c, 9, 52, 96
5, 31439, Note_on_c, 9, 37, 0
5, 31439, Note_on_c, 9, 52, 0
5, 31440, Note_on_c, 9, 52, 64
5, 31559, Note_on_c, 9, 52, 0
5, 31560, Note_on_c, 9, 36, 96
5, 31679, Note_on_c, 9, 36, 0
5, 31680, Note_on_c, 9, 36, 96
5, 31680, Note_on_c, 9, 52, 96
5, 31799, Note_on_c, 9, 36, 0
5, 31799, Note_on_c, 9, 52, 0
5, 31800, Note_on_c, 9, 52, 64
5, 31919, Note_on_c, 9, 52, 0
5, 31920, Note_on_c, 9, 52, 96
5, 32159, Note_on_c, 9, 52, 0
5, 32160, Note_on_c, 9, 37, 96
5, 32160, Note_on_c, 9, 52, 96
5, 32399, Note_on_c, 9, 37, 0
5, 32399, Note_on_c, 9, 52, 0
5, 32400, Note_on_c, 9, 52, 64
5, 32639, Note_on_c, 9, 52, 0
5, 32640, Note_on_c, 9, 35, 96
5, 32879, Note_on_c, 9, 35, 0
5, 32880, Note_on_c, 9, 35, 96
5, 32880, Note_on_c, 9, 52, 96
5, 32999, Note_on_c, 9, 35, 0
5, 32999, Note_on_c, 9, 52, 0
5, 33000, Note_on_c, 9, 52, 64
5, 33119, Note_on_c, 9, 52, 0
5, 33120, Note_on_c, 9, 37, 96
5, 33120, Note_on_c, 9, 52, 96
5, 33359, Note_on_c, 9, 37, 0
5, 33359, Note_on_c, 9, 52, 0
5, 33360, Note_on_c, 9, 52, 64
5, 33479, Note_on_c, 9, 52, 0
5, 33480, Note_on_c, 9, 36, 96
5, 33599, Note_on_c, 9, 36, 0
5, 33600, Note_on_c, 9, 36, 96
5, 33600, Note_on_c, 9, 52, 96
5, 33719, Note_on_c, 9, 36, 0
5, 33719, Note_on_c, 9, 52, 0
5, 33720, Note_on_c, 9, 52, 64
5, 33839, Note_on_c, 9, 52, 0
5, 33840, Note_on_c, 9, 52, 96
5, 34079, Note_on_c, 9, 52, 0
5, 34080, Note_on_c, 9, 52, 96
5, 34319, Note_on_c, 9, 52, 0
5, 34320, Note_on_c, 9, 42, 64
5, 34559, Note_on_c, 9, 42, 0
5, 34560, Note_on_c, 9, 35, 96
5, 34560, Note_on_c, 9, 52, 96
5, 34799, Note_on_c, 9, 35, 0
5, 34799, Note_on_c, 9, 52, 0
5, 34800, Note_on_c, 9, 35, 96
5, 34800, Note_on_c, 9, 52, 96
5, 34919, Note_on_c, 9, 35, 0
5, 34919, Note_on_c, 9, 52, 0
5, 34920, Note_on_c, 9, 52, 64
5, 35039, Note_on_c, 9, 52, 0
5, 35040, Note_on_c, 9, 37, 96
5, 35040, Note_on_c, 9, 52, 96
5, 35279, Note_on_c, 9, 37, 0
5, 35279, Note_on_c, 9, 52, 0
5, 35280, Note_on_c, 9, 52, 64
5, 35399, Note_on_c, 9, 52, 0
5, 35400, Note_on_c, 9, 36, 96
5, 35519, Note_on_c, 9, 36, 0
5, 35520, Note_on_c, 9, 36, 96
5, 35520, Note_on_c, 9, 52, 96
5, 35639, Note_on_c, 9, 36, 0
5, 35639, Note_on_c, 9, 52, 0
5, 35640, Note_on_c, 9, 52, 64
5, 35759, Note_on_c, 9, 52, 0
5, 35760, Note_on_c, 9, 52, 96
5, 35999, Note_on_c, 9, 52, 0
5, 36000, Note_on_c, 9, 37, 96
5, 36000, Note_on_c, 9, 52, 96
5, 36239, Note_on_c, 9, 37, 0
5, 36239, Note_on_c, 9, 52, 0
5, 36240, Note_on_c, 9, 52, 64
5, 36479, Note_on_c, 9, 52, 0
5, 36480, Note_on_c, 9, 35, 96
5, 36480, Note_on_c, 9, 52, 96
5, 36719, Note_on_c, 9, 35, 0
5, 36719, Note_on_c, 9, 52, 0
5, 36720, Note_on_c, 9, 35, 96
5, 36720, Note_on_c, 9, 52, 96
5, 36839, Note_on_c, 9, 35, 0
5, 36839, Note_on_c, 9, 52, 0
5, 36840, Note_on_c, 9, 52, 64
5, 36959, Note_on_c, 9, 52, 0
5, 36960, Note_on_c, 9, 37, 96
5, 36960, Note_on_c, 9, 52, 96
5, 37199, Note_on_c, 9, 37, 0
5, 37199, Note_on_c, 9, 52, 0
5, 37200, Note_on_c, 9, 52, 64
5, 37319, Note_on_c, 9, 52, 0
5, 37320, Note_on_c, 9, 36, 96
5, 37439, Note_on_c, 9, 36, 0
5, 37440, Note_on_c, 9, 36, 96
5, 37440, Note_on_c, 9, 52, 96
5, 37559, Note_on_c, 9, 36, 0
5, 37559, Note_on_c, 9, 52, 0
5, 37560, Note_on_c, 9, 52, 64
5, 37679, Note_on_c, 9, 52, 0
5, 37680, Note_on_c, 9, 52, 96
5, 37919, Note_on_c, 9, 52, 0
5, 37920, Note_on_c, 9, 52, 96
5, 38039, Note_on_c, 9, 52, 0
5, 38040, Note_on_c, 9, 52, 64
5, 38159, Note_on_c, 9, 52, 0
5, 38160, Note_on_c, 9, 54, 96
5, 38399, Note_on_c, 9, 54, 0
5, 38400, Note_on_c, 9, 51, 96
5, 38519, Note_on_c, 9, 51, 0
5, 38520, Note_on_c, 9, 51, 64
5, 38639, Note_on_c, 9, 51, 0
5, 38640, Note_on_c, 9, 51, 96
5, 38759, Note_on_c, 9, 51, 0
5, 38760, Note_on_c, 9, 51, 64
5, 38879, Note_on_c, 9, 51, 0
5, 38880, Note_on_c, 9, 59, 64
5, 38999, Note_on_c, 9, 59, 0
5, 39000, Note_on_c, 9, 51, 96
5, 39119, Note_on_c, 9, 51, 0
5, 39120, Note_on_c, 9, 51, 96
5, 39239, Note_on_c, 9, 51, 0
5, 39240, Note_on_c, 9, 51, 64
5, 39359, Note_on_c, 9, 51, 0
5, 39360, Note_on_c, 9, 51, 96
5, 39479, Note_on_c, 9, 51, 0
5, 39480, Note_on_c, 9, 59, 64
5, 39599, Note_on_c, 9, 59, 0
5, 39600, Note_on_c, 9, 51, 96
5, 39719, Note_on_c, 9, 51, 0
5, 39720, Note_on_c, 9, 51, 96
5, 39839, Note_on_c, 9, 51, 0
5, 39840, Note_on_c, 9, 51, 64
5, 39959, Note_on_c, 9, 51, 0
5, 39960, Note_on_c, 9, 51, 96
5, 40079, Note_on_c, 9, 51, 0
5, 40080, Note_on_c, 9, 59, 64
5, 40199, Note_on_c, 9, 59, 0
5, 40200, Note_on_c, 9, 51, 96
5, 40319, Note_on_c, 9, 51, 0
5, 40440, Note_on_c, 9, 51, 64
5, 40559, Note_on_c, 9, 51, 0
5, 40560, Note_on_c, 9, 51, 96
5, 40679, Note_on_c, 9, 51, 0
5, 40680, Note_on_c, 9, 51, 64
5, 40799, Note_on_c, 9, 51, 0
5, 40800, Note_on_c, 9, 51, 96
5, 40919, Note_on_c, 9, 51, 0
5, 40920, Note_on_c, 9, 59, 96
5, 41039, Note_on_c, 9, 59, 0
5, 41040, Note_on_c, 9, 51, 64
5, 41159, Note_on_c, 9, 51, 0
5, 41160, Note_on_c, 9, 51, 96
5, 41279, Note_on_c, 9, 51, 0
5, 41280, Note_on_c, 9, 51, 64
5, 41399, Note_on_c, 9, 51, 0
5, 41400, Note_on_c, 9, 59, 96
5, 41519, Note_on_c, 9, 59, 0
5, 41520, Note_on_c, 9, 51, 96
5, 41639, Note_on_c, 9, 51, 0
5, 41640, Note_on_c, 9, 51, 64
5, 41759, Note_on_c, 9, 51, 0
5, 41760, Note_on_c, 9, 51, 96
5, 41879, Note_on_c, 9, 51, 0
5, 41880, Note_on_c, 9, 51, 64
5, 41999, Note_on_c, 9, 51, 0
5, 42000, Note_on_c, 9, 59, 96
5, 42119, Note_on_c, 9, 59, 0
5, 42120, Note_on_c, 9, 51, 96
5, 42239, Note_on_c, 9, 51, 0
5, 42240, End_track
0, 0, End_of_file
